<?xml version="1.0" encoding="utf-8"?>
<!-- Generator: Adobe Illustrator 26.2.1, SVG Export Plug-In . SVG Version: 6.00 Build 0)  -->
<svg version="1.1" id="Layer_1" xmlns="http://www.w3.org/2000/svg" xmlns:xlink="http://www.w3.org/1999/xlink" x="0px" y="0px"
	 viewBox="0 0 1920 1080" style="enable-background:new 0 0 1920 1080;" xml:space="preserve">
<style type="text/css">
	.st0{clip-path:url(#SVGID_00000105414726642450825050000001154573622039946903_);fill:#A20100;}
	.st1{clip-path:url(#SVGID_00000105414726642450825050000001154573622039946903_);}
	.st2{fill:#B51C02;}
	.st3{fill:#CB694F;}
	.st4{clip-path:url(#SVGID_00000105414726642450825050000001154573622039946903_);fill:#960202;}
	.st5{fill:#C68928;}
	.st6{fill:#F4612C;}
	.st7{fill-rule:evenodd;clip-rule:evenodd;fill:#E82B10;}
	.st8{fill:#FEE9A7;}
	.st9{fill:#F7C23C;}
</style>
<g>
	<defs>
		<rect id="SVGID_1_" width="1920" height="1080"/>
	</defs>
	<clipPath id="SVGID_00000111171181390605347110000009052454324259576499_">
		<use xlink:href="#SVGID_1_"  style="overflow:visible;"/>
	</clipPath>
	
		<rect style="clip-path:url(#SVGID_00000111171181390605347110000009052454324259576499_);fill:#A20100;" width="1920" height="1080"/>
	<g style="clip-path:url(#SVGID_00000111171181390605347110000009052454324259576499_);">
		<path class="st2" d="M180.9,467.5c-6.6,1.6-9.6-2.6-15.5-3.8c-7.5,3.4-13.8,4.8-22.6,3.9c1.2-3.5,4.2-6.3,9.1-6.6
			c7.7-1.7,2.8-10.9-3.6-7.6c6.8-2.2,3.7-12.2-2.9-7.9c-3.1,2.9-6.7,3.4-9.8,2.3c5.5-7.6,11.3-9.2,19-12.3
			c3.8-5.1,1.1-10.7,7.6-14.4c3.7-3.7-2.1-9.4-5.7-5.7c-3.6,5.8-8.7,5-13.7,8.3c-2.9,7.7-6.4,13.2-13.3,18.7
			c-1.7-3.3-1.5-7.5,1.8-11.1c4.2-5.6-4.7-10-7.3-3.8c2.6-6.2-6.8-9.3-7.8-2.4c-0.3,4.9-3.1,7.9-6.5,9.1c-0.9-8.8,0.4-15.1,3.8-22.6
			c-1.2-5.9-5.4-8.9-3.9-15.5c0-5.2-8.1-5.2-8.1,0c0,2.7,0,5.3,0,8c-11.8,7.2,4,16.7,0.1,29.6c-2.9-1.4-5.1-4.3-5.3-8.5
			c-1.7-7.7-10.9-2.8-7.6,3.6c-2.2-6.8-12.2-3.7-7.9,2.9c3.3,3.6,3.4,7.8,1.8,11.1c-6.9-5.6-10.4-11-13.3-18.7
			c-5-3.3-10.1-2.5-13.7-8.2c-3.7-3.7-9.4,2.1-5.7,5.7c6.5,3.7,3.8,9.2,7.6,14.3c7.7,3,13.5,4.7,19,12.2c-3.1,1-6.6,0.6-9.8-2.3
			c-6.4-4.3-9.7,5.6-3,7.8c-6.4-3.4-11.7,5.7-3.8,7.5c4.9,0.3,7.9,3.1,9.1,6.5c-8.8,0.9-15.1-0.4-22.6-3.8
			c-5.9,1.2-8.9,5.4-15.5,3.9c-5.2,0-5.2,8.1,0,8.1c2.7,0,5.3,0,8,0c7.2,11.8,16.7-4,29.6-0.1c-1.4,2.9-4.3,5.1-8.5,5.3
			c-7.7,1.7-2.8,10.9,3.6,7.6c-6.8,2.2-3.7,12.2,2.9,7.9c3.6-3.3,7.8-3.4,11.1-1.8c-5.6,6.9-11,10.4-18.7,13.3
			c-3.3,5-2.5,10.1-8.2,13.7c-3.7,3.7,2.1,9.4,5.7,5.7c3.7-6.5,9.2-3.8,14.3-7.6c3-7.7,4.7-13.5,12.2-19c1,3.1,0.6,6.6-2.3,9.8
			c-4.2,8.9,7.2,8.6,9,0.8c-4.3,6.6,3.6,15.1,6.9,5.8c0.2-4.3,2.4-7.1,5.3-8.5c4,12.9-11.8,22.5,0.1,29.6c0,2.7,0,5.3,0,8
			c0,5.2,8.1,5.2,8.1,0c-1.6-6.6,2.6-9.6,3.8-15.5c-3.4-7.5-4.8-13.8-3.9-22.6c3.5,1.2,6.3,4.2,6.6,9.1c1.7,7.7,10.9,2.8,7.6-3.6
			c2.2,6.8,12.2,3.7,7.9-2.9c-2.9-3.1-3.4-6.7-2.3-9.8c7.6,5.5,9.2,11.3,12.3,19c5.1,3.8,10.7,1.1,14.4,7.6c3.7,3.7,9.4-2.1,5.7-5.7
			c-5.8-3.6-5-8.7-8.3-13.7c-7.7-2.9-13.2-6.4-18.7-13.3c3.3-1.7,7.5-1.5,11.1,1.8c6.8,4.3,9.5-6,2.6-8.1c6.3,3.2,10.9-6.1,3.4-7.6
			c-4.3-0.2-7.1-2.4-8.5-5.3c10.5-1.4,13.5,1.1,22.1,4.7c6.3-0.9,8.3-6.8,15.5-4.8C186.1,475.6,186.1,467.5,180.9,467.5z
			 M142.2,455.9c-10.9,11.9-8.2,13-26.3,11.7C125.4,456.4,128.2,454.4,142.2,455.9z M120.6,435.8c2.6,15.1,0.7,16-10.9,26.5
			C108.9,446.6,108.2,444.7,120.6,435.8z M91.2,434.8c11.4,9.4,11.4,11.6,10.4,26.9C88.2,450.5,90.3,450.4,91.2,434.8z M69.6,456.2
			c14.6-1.1,16.4-0.2,26.4,11.5C78.1,468.8,80.4,468.3,69.6,456.2z M69.5,486.1c9.4-11.4,11.6-11.4,26.9-10.4
			C84.5,489.5,85.6,486.9,69.5,486.1z M90.2,509.7c1.6-15.5-3-16.2,11.4-27.8C103.6,501,100.2,497,90.2,509.7z M121.4,507.6
			c-11.9-10.9-13-8.2-11.7-26.3C120.9,490.7,123,493.6,121.4,507.6z M142.5,486.2c-15.7,1.2-15.6,2.6-26.9-10.5
			C131.7,474.7,132.4,474.7,142.5,486.2z"/>
		<path class="st2" d="M398.6,114.5c-8.2,2-11.9-3.2-19.2-4.7c-9.3,4.2-17.1,5.9-28,4.8c1.4-4.3,5.2-7.8,11.2-8.1
			c9.5-2.1,3.5-13.4-4.4-9.4c8.4-2.8,4.5-15.1-3.6-9.8c-3.9,3.6-8.3,4.2-12.1,2.9c6.8-9.4,13.9-11.4,23.5-15.2
			c4.7-6.3,1.4-13.2,9.4-17.8c4.5-4.6-2.5-11.6-7.1-7.1c-4.4,7.2-10.7,6.2-16.9,10.2c-3.6,9.5-7.9,16.3-16.4,23.2
			c-2-4.1-1.9-9.2,2.2-13.7c5.2-6.9-5.8-12.4-9-4.7c3.2-7.7-8.4-11.5-9.7-3c-0.3,6-3.8,9.8-8.1,11.2c-1.2-10.9,0.6-18.7,4.7-28
			c-1.5-7.3-6.7-11-4.8-19.2c0-6.4-10-6.4-10,0c0,3.3,0,6.6,0,9.9c-14.6,8.9,4.9,20.7,0.1,36.6c-3.5-1.8-6.3-5.3-6.6-10.5
			c-2.1-9.5-13.4-3.5-9.4,4.4c-2.8-8.4-15.1-4.5-9.8,3.6c4.1,4.4,4.3,9.6,2.2,13.7c-8.5-6.9-12.8-13.6-16.5-23.1
			c-6.2-4.1-12.5-3-16.9-10.2c-4.6-4.5-11.6,2.5-7.1,7.1c8,4.5,4.6,11.4,9.4,17.7c9.6,3.8,16.7,5.8,23.5,15.1
			c-3.8,1.3-8.2,0.8-12.1-2.8c-7.9-5.3-12,6.9-3.7,9.7c-7.9-4.2-14.5,7-4.7,9.3c6,0.3,9.8,3.8,11.2,8.1c-10.9,1.2-18.7-0.6-28-4.7
			c-7.3,1.5-11,6.7-19.2,4.8c-6.4,0-6.4,10,0,10c3.3,0,6.6,0,9.9,0c8.9,14.6,20.7-4.9,36.6-0.1c-1.8,3.5-5.3,6.3-10.5,6.6
			c-9.5,2.1-3.5,13.4,4.4,9.4c-8.4,2.8-4.5,15.1,3.6,9.8c4.4-4.1,9.6-4.3,13.7-2.2c-6.9,8.5-13.6,12.8-23.1,16.5
			c-4.1,6.2-3,12.5-10.2,16.9c-4.5,4.6,2.5,11.6,7.1,7.1c4.5-8,11.4-4.6,17.7-9.4c3.8-9.6,5.8-16.7,15.1-23.5
			c1.3,3.8,0.8,8.2-2.8,12.1c-5.2,11,8.9,10.6,11.2,1c-5.3,8.2,4.5,18.6,8.6,7.2c0.3-5.3,3-8.8,6.5-10.6c4.9,16-14.5,27.8,0.1,36.6
			c0,3.3,0,6.6,0,9.9c0,6.4,10,6.4,10,0c-2-8.2,3.2-11.9,4.7-19.2c-4.2-9.3-5.9-17.1-4.8-28c4.3,1.4,7.8,5.2,8.1,11.2
			c2.1,9.5,13.4,3.5,9.4-4.4c2.8,8.4,15.1,4.5,9.8-3.6c-3.6-3.9-4.2-8.3-2.9-12.1c9.4,6.8,11.4,13.9,15.2,23.5
			c6.3,4.7,13.2,1.4,17.8,9.4c4.6,4.5,11.6-2.5,7.1-7.1c-7.2-4.4-6.2-10.7-10.2-16.9c-9.5-3.6-16.3-7.9-23.2-16.4
			c4.1-2,9.2-1.9,13.7,2.2c8.4,5.4,11.8-7.4,3.2-10c7.8,3.9,13.5-7.5,4.1-9.4c-5.3-0.3-8.8-3-10.6-6.5c13-1.7,16.7,1.4,27.3,5.9
			c7.8-1.1,10.3-8.4,19.2-5.9C405.1,124.5,405.1,114.5,398.6,114.5z M350.8,100.2c-13.5,14.7-10.2,16-32.6,14.4
			C330,100.9,333.5,98.3,350.8,100.2z M324.1,75.3c3.2,18.7,0.9,19.7-13.5,32.8C309.6,88.7,308.8,86.4,324.1,75.3z M287.7,74.1
			c14,11.6,14.1,14.4,12.9,33.2C284.1,93.5,286.7,93.4,287.7,74.1z M261.1,100.5c18.1-1.4,20.2-0.3,32.7,14.2
			C271.6,116.1,274.4,115.6,261.1,100.5z M260.9,137.6c11.6-14,14.4-14.1,33.2-12.9C279.4,141.7,280.9,138.5,260.9,137.6z
			 M286.5,166.6c2-19.2-3.7-20.1,14.1-34.3C303.1,155.9,298.8,151,286.5,166.6z M325.1,164c-14.7-13.5-16-10.2-14.4-32.6
			C324.4,143.2,327,146.7,325.1,164z M351.2,137.6c-19.4,1.5-19.3,3.2-33.2-12.9C337.8,123.4,338.7,123.5,351.2,137.6z"/>
		<path class="st3" d="M360.1,506.9c-3.3,0.8-4.8-1.3-7.7-1.9c-3.7,1.7-6.9,2.4-11.3,1.9c0.6-1.7,2.1-3.1,4.5-3.3
			c3.8-0.8,1.4-5.4-1.8-3.8c3.4-1.1,1.8-6.1-1.4-3.9c-1.6,1.5-3.4,1.7-4.9,1.2c2.7-3.8,5.6-4.6,9.5-6.1c1.9-2.6,0.6-5.3,3.8-7.2
			c1.8-1.8-1-4.7-2.9-2.9c-1.8,2.9-4.3,2.5-6.8,4.1c-1.5,3.8-3.2,6.6-6.6,9.4c-0.8-1.6-0.8-3.7,0.9-5.5c2.1-2.8-2.3-5-3.6-1.9
			c1.3-3.1-3.4-4.6-3.9-1.2c-0.1,2.4-1.5,3.9-3.3,4.5c-0.5-4.4,0.2-7.5,1.9-11.3c-0.6-2.9-2.7-4.4-1.9-7.7c0-2.6-4-2.6-4,0
			c0,1.3,0,2.7,0,4c-5.9,3.6,2,8.3,0,14.8c-1.4-0.7-2.5-2.1-2.7-4.3c-0.8-3.8-5.4-1.4-3.8,1.8c-1.1-3.4-6.1-1.8-3.9,1.4
			c1.7,1.8,1.7,3.9,0.9,5.5c-3.4-2.8-5.2-5.5-6.7-9.3c-2.5-1.6-5.1-1.2-6.8-4.1c-1.8-1.8-4.7,1-2.9,2.9c3.2,1.8,1.9,4.6,3.8,7.2
			c3.9,1.5,6.8,2.3,9.5,6.1c-1.5,0.5-3.3,0.3-4.9-1.1c-3.2-2.1-4.8,2.8-1.5,3.9c-3.2-1.7-5.9,2.8-1.9,3.8c2.4,0.1,3.9,1.5,4.5,3.3
			c-4.4,0.5-7.5-0.2-11.3-1.9c-2.9,0.6-4.4,2.7-7.7,1.9c-2.6,0-2.6,4,0,4c1.3,0,2.7,0,4,0c3.6,5.9,8.3-2,14.8,0
			c-0.7,1.4-2.1,2.5-4.3,2.7c-3.8,0.8-1.4,5.4,1.8,3.8c-3.4,1.1-1.8,6.1,1.4,3.9c1.8-1.7,3.9-1.7,5.5-0.9c-2.8,3.4-5.5,5.2-9.3,6.7
			c-1.6,2.5-1.2,5.1-4.1,6.8c-1.8,1.8,1,4.7,2.9,2.9c1.8-3.2,4.6-1.9,7.2-3.8c1.5-3.9,2.3-6.8,6.1-9.5c0.5,1.5,0.3,3.3-1.1,4.9
			c-2.1,4.4,3.6,4.3,4.5,0.4c-2.1,3.3,1.8,7.5,3.5,2.9c0.1-2.1,1.2-3.5,2.6-4.3c2,6.5-5.9,11.2,0,14.8c0,1.3,0,2.7,0,4
			c0,2.6,4,2.6,4,0c-0.8-3.3,1.3-4.8,1.9-7.7c-1.7-3.7-2.4-6.9-1.9-11.3c1.7,0.6,3.1,2.1,3.3,4.5c0.8,3.8,5.4,1.4,3.8-1.8
			c1.1,3.4,6.1,1.8,3.9-1.4c-1.5-1.6-1.7-3.4-1.2-4.9c3.8,2.7,4.6,5.6,6.1,9.5c2.6,1.9,5.3,0.6,7.2,3.8c1.8,1.8,4.7-1,2.9-2.9
			c-2.9-1.8-2.5-4.3-4.1-6.8c-3.8-1.5-6.6-3.2-9.4-6.6c1.6-0.8,3.7-0.8,5.5,0.9c3.4,2.2,4.8-3,1.3-4c3.2,1.6,5.4-3,1.7-3.8
			c-2.1-0.1-3.5-1.2-4.3-2.6c5.3-0.7,6.7,0.6,11,2.4c3.2-0.5,4.2-3.4,7.7-2.4C362.7,511,362.7,506.9,360.1,506.9z M340.7,501.2
			c-5.4,5.9-4.1,6.5-13.1,5.8C332.3,501.4,333.7,500.4,340.7,501.2z M330,491.1c1.3,7.6,0.4,8-5.5,13.2
			C324.1,496.5,323.8,495.6,330,491.1z M315.3,490.7c5.7,4.7,5.7,5.8,5.2,13.4C313.8,498.5,314.8,498.4,315.3,490.7z M304.5,501.3
			c7.3-0.6,8.2-0.1,13.2,5.7C308.8,507.6,309.9,507.4,304.5,501.3z M304.4,516.3c4.7-5.7,5.8-5.7,13.4-5.2
			C311.9,517.9,312.5,516.6,304.4,516.3z M314.8,528c0.8-7.8-1.5-8.1,5.7-13.9C321.5,523.7,319.8,521.7,314.8,528z M330.4,527
			c-5.9-5.4-6.5-4.1-5.8-13.1C330.1,518.5,331.1,520,330.4,527z M340.9,516.3c-7.8,0.6-7.8,1.3-13.4-5.2
			C335.5,510.5,335.8,510.6,340.9,516.3z"/>
		<path class="st3" d="M96.2,726c-2.6,0.6-3.7-1-6-1.5c-2.9,1.3-5.3,1.8-8.7,1.5c0.4-1.3,1.6-2.4,3.5-2.5c2.9-0.7,1.1-4.2-1.4-2.9
			c2.6-0.9,1.4-4.7-1.1-3c-1.2,1.1-2.6,1.3-3.8,0.9c2.1-2.9,4.3-3.5,7.3-4.7c1.5-2,0.4-4.1,2.9-5.5c1.4-1.4-0.8-3.6-2.2-2.2
			c-1.4,2.2-3.3,1.9-5.3,3.2c-1.1,3-2.5,5.1-5.1,7.2c-0.6-1.3-0.6-2.9,0.7-4.3c1.6-2.1-1.8-3.8-2.8-1.5c1-2.4-2.6-3.6-3-0.9
			c-0.1,1.9-1.2,3-2.5,3.5c-0.4-3.4,0.2-5.8,1.5-8.7c-0.5-2.3-2.1-3.4-1.5-6c0-2-3.1-2-3.1,0c0,1,0,2,0,3.1c-4.5,2.8,1.5,6.4,0,11.4
			c-1.1-0.5-2-1.6-2-3.3c-0.7-2.9-4.2-1.1-2.9,1.4c-0.9-2.6-4.7-1.4-3,1.1c1.3,1.4,1.3,3,0.7,4.3c-2.6-2.1-4-4.2-5.1-7.2
			c-1.9-1.3-3.9-0.9-5.3-3.2c-1.4-1.4-3.6,0.8-2.2,2.2c2.5,1.4,1.4,3.5,2.9,5.5c3,1.2,5.2,1.8,7.3,4.7c-1.2,0.4-2.6,0.2-3.8-0.9
			c-2.5-1.7-3.7,2.1-1.2,3c-2.5-1.3-4.5,2.2-1.5,2.9c1.9,0.1,3,1.2,3.5,2.5c-3.4,0.4-5.8-0.2-8.7-1.5c-2.3,0.5-3.4,2.1-6,1.5
			c-2,0-2,3.1,0,3.1c1,0,2,0,3.1,0c2.8,4.5,6.4-1.5,11.4,0c-0.5,1.1-1.6,2-3.3,2c-2.9,0.7-1.1,4.2,1.4,2.9c-2.6,0.9-1.4,4.7,1.1,3
			c1.4-1.3,3-1.3,4.3-0.7c-2.1,2.6-4.2,4-7.2,5.1c-1.3,1.9-0.9,3.9-3.2,5.3c-1.4,1.4,0.8,3.6,2.2,2.2c1.4-2.5,3.5-1.4,5.5-2.9
			c1.2-3,1.8-5.2,4.7-7.3c0.4,1.2,0.2,2.6-0.9,3.8c-1.6,3.4,2.8,3.3,3.5,0.3c-1.6,2.5,1.4,5.8,2.7,2.2c0.1-1.6,0.9-2.7,2-3.3
			c1.5,5-4.5,8.6,0,11.4c0,1,0,2,0,3.1c0,2,3.1,2,3.1,0c-0.6-2.5,1-3.7,1.5-6c-1.3-2.9-1.8-5.3-1.5-8.7c1.3,0.4,2.4,1.6,2.5,3.5
			c0.7,2.9,4.2,1.1,2.9-1.4c0.9,2.6,4.7,1.4,3-1.1c-1.1-1.2-1.3-2.6-0.9-3.8c2.9,2.1,3.5,4.3,4.7,7.3c2,1.5,4.1,0.4,5.5,2.9
			c1.4,1.4,3.6-0.8,2.2-2.2c-2.2-1.4-1.9-3.3-3.2-5.3c-3-1.1-5.1-2.5-7.2-5.1c1.3-0.6,2.9-0.6,4.3,0.7c2.6,1.7,3.7-2.3,1-3.1
			c2.4,1.2,4.2-2.3,1.3-2.9c-1.6-0.1-2.7-0.9-3.3-2c4.1-0.5,5.2,0.4,8.5,1.8c2.4-0.4,3.2-2.6,6-1.8C98.2,729.1,98.2,726,96.2,726z
			 M81.3,721.5c-4.2,4.6-3.2,5-10.1,4.5C74.8,721.7,75.9,720.9,81.3,721.5z M73,713.8c1,5.8,0.3,6.1-4.2,10.2
			C68.5,717.9,68.2,717.2,73,713.8z M61.7,713.4c4.4,3.6,4.4,4.5,4,10.3C60.5,719.4,61.3,719.4,61.7,713.4z M53.4,721.6
			c5.6-0.4,6.3-0.1,10.2,4.4C56.6,726.5,57.5,726.3,53.4,721.6z M53.3,733.2c3.6-4.4,4.5-4.4,10.3-4
			C59.1,734.4,59.5,733.4,53.3,733.2z M61.3,742.2c0.6-6-1.2-6.2,4.4-10.7C66.4,738.9,65.1,737.3,61.3,742.2z M73.3,741.4
			c-4.6-4.2-5-3.2-4.5-10.1C73.1,734.9,73.9,736,73.3,741.4z M81.4,733.2c-6,0.5-6,1-10.3-4C77.2,728.7,77.5,728.8,81.4,733.2z"/>
		<path class="st3" d="M374,869.4c-2.6,0.6-3.7-1-6-1.5c-2.9,1.3-5.3,1.8-8.7,1.5c0.4-1.3,1.6-2.4,3.5-2.5c2.9-0.7,1.1-4.2-1.4-2.9
			c2.6-0.9,1.4-4.7-1.1-3c-1.2,1.1-2.6,1.3-3.8,0.9c2.1-2.9,4.3-3.5,7.3-4.7c1.5-2,0.4-4.1,2.9-5.5c1.4-1.4-0.8-3.6-2.2-2.2
			c-1.4,2.2-3.3,1.9-5.3,3.2c-1.1,3-2.5,5.1-5.1,7.2c-0.6-1.3-0.6-2.9,0.7-4.3c1.6-2.1-1.8-3.8-2.8-1.5c1-2.4-2.6-3.6-3-0.9
			c-0.1,1.9-1.2,3-2.5,3.5c-0.4-3.4,0.2-5.8,1.5-8.7c-0.5-2.3-2.1-3.4-1.5-6c0-2-3.1-2-3.1,0c0,1,0,2,0,3.1c-4.5,2.8,1.5,6.4,0,11.4
			c-1.1-0.5-2-1.6-2-3.3c-0.7-2.9-4.2-1.1-2.9,1.4c-0.9-2.6-4.7-1.4-3,1.1c1.3,1.4,1.3,3,0.7,4.3c-2.6-2.1-4-4.2-5.1-7.2
			c-1.9-1.3-3.9-0.9-5.3-3.2c-1.4-1.4-3.6,0.8-2.2,2.2c2.5,1.4,1.4,3.5,2.9,5.5c3,1.2,5.2,1.8,7.3,4.7c-1.2,0.4-2.6,0.2-3.8-0.9
			c-2.5-1.7-3.7,2.1-1.2,3c-2.5-1.3-4.5,2.2-1.5,2.9c1.9,0.1,3,1.2,3.5,2.5c-3.4,0.4-5.8-0.2-8.7-1.5c-2.3,0.5-3.4,2.1-6,1.5
			c-2,0-2,3.1,0,3.1c1,0,2,0,3.1,0c2.8,4.5,6.4-1.5,11.4,0c-0.5,1.1-1.6,2-3.3,2c-2.9,0.7-1.1,4.2,1.4,2.9c-2.6,0.9-1.4,4.7,1.1,3
			c1.4-1.3,3-1.3,4.3-0.7c-2.1,2.6-4.2,4-7.2,5.1c-1.3,1.9-0.9,3.9-3.2,5.3c-1.4,1.4,0.8,3.6,2.2,2.2c1.4-2.5,3.5-1.4,5.5-2.9
			c1.2-3,1.8-5.2,4.7-7.3c0.4,1.2,0.2,2.6-0.9,3.8c-1.6,3.4,2.8,3.3,3.5,0.3c-1.6,2.5,1.4,5.8,2.7,2.2c0.1-1.6,0.9-2.7,2-3.3
			c1.5,5-4.5,8.6,0,11.4c0,1,0,2,0,3.1c0,2,3.1,2,3.1,0c-0.6-2.5,1-3.7,1.5-6c-1.3-2.9-1.8-5.3-1.5-8.7c1.3,0.4,2.4,1.6,2.5,3.5
			c0.7,2.9,4.2,1.1,2.9-1.4c0.9,2.6,4.7,1.4,3-1.1c-1.1-1.2-1.3-2.6-0.9-3.8c2.9,2.1,3.5,4.3,4.7,7.3c2,1.5,4.1,0.4,5.5,2.9
			c1.4,1.4,3.6-0.8,2.2-2.2c-2.2-1.4-1.9-3.3-3.2-5.3c-3-1.1-5.1-2.5-7.2-5.1c1.3-0.6,2.9-0.6,4.3,0.7c2.6,1.7,3.7-2.3,1-3.1
			c2.4,1.2,4.2-2.3,1.3-2.9c-1.6-0.1-2.7-0.9-3.3-2c4.1-0.5,5.2,0.4,8.5,1.8c2.4-0.4,3.2-2.6,6-1.8C376,872.5,376,869.4,374,869.4z
			 M359.1,865c-4.2,4.6-3.2,5-10.1,4.5C352.7,865.2,353.7,864.4,359.1,865z M350.8,857.2c1,5.8,0.3,6.1-4.2,10.2
			C346.3,861.4,346.1,860.7,350.8,857.2z M339.5,856.9c4.4,3.6,4.4,4.5,4,10.3C338.4,862.9,339.2,862.9,339.5,856.9z M331.2,865.1
			c5.6-0.4,6.3-0.1,10.2,4.4C334.5,869.9,335.4,869.7,331.2,865.1z M331.2,876.6c3.6-4.4,4.5-4.4,10.3-4
			C336.9,877.9,337.4,876.9,331.2,876.6z M339.1,885.6c0.6-6-1.2-6.2,4.4-10.7C344.3,882.3,343,880.8,339.1,885.6z M351.1,884.8
			c-4.6-4.2-5-3.2-4.5-10.1C350.9,878.4,351.7,879.4,351.1,884.8z M359.3,876.6c-6,0.5-6,1-10.3-4
			C355.1,872.2,355.4,872.2,359.3,876.6z"/>
		<path class="st3" d="M527.2,51.4c-2.6,0.6-3.7-1-6-1.5c-2.9,1.3-5.3,1.8-8.7,1.5c0.4-1.3,1.6-2.4,3.5-2.5c2.9-0.7,1.1-4.2-1.4-2.9
			c2.6-0.9,1.4-4.7-1.1-3c-1.2,1.1-2.6,1.3-3.8,0.9c2.1-2.9,4.3-3.5,7.3-4.7c1.5-2,0.4-4.1,2.9-5.5c1.4-1.4-0.8-3.6-2.2-2.2
			c-1.4,2.2-3.3,1.9-5.3,3.2c-1.1,3-2.5,5.1-5.1,7.2c-0.6-1.3-0.6-2.9,0.7-4.3c1.6-2.1-1.8-3.8-2.8-1.5c1-2.4-2.6-3.6-3-0.9
			c-0.1,1.9-1.2,3-2.5,3.5c-0.4-3.4,0.2-5.8,1.5-8.7c-0.5-2.3-2.1-3.4-1.5-6c0-2-3.1-2-3.1,0c0,1,0,2,0,3.1c-4.5,2.8,1.5,6.4,0,11.4
			c-1.1-0.5-2-1.6-2-3.3c-0.7-2.9-4.2-1.1-2.9,1.4c-0.9-2.6-4.7-1.4-3,1.1c1.3,1.4,1.3,3,0.7,4.3c-2.6-2.1-4-4.2-5.1-7.2
			c-1.9-1.3-3.9-0.9-5.3-3.2c-1.4-1.4-3.6,0.8-2.2,2.2c2.5,1.4,1.4,3.5,2.9,5.5c3,1.2,5.2,1.8,7.3,4.7c-1.2,0.4-2.6,0.2-3.8-0.9
			c-2.5-1.7-3.7,2.1-1.2,3c-2.5-1.3-4.5,2.2-1.5,2.9c1.9,0.1,3,1.2,3.5,2.5c-3.4,0.4-5.8-0.2-8.7-1.5c-2.3,0.5-3.4,2.1-6,1.5
			c-2,0-2,3.1,0,3.1c1,0,2,0,3.1,0c2.8,4.5,6.4-1.5,11.4,0c-0.5,1.1-1.6,2-3.3,2c-2.9,0.7-1.1,4.2,1.4,2.9c-2.6,0.9-1.4,4.7,1.1,3
			c1.4-1.3,3-1.3,4.3-0.7c-2.1,2.6-4.2,4-7.2,5.1c-1.3,1.9-0.9,3.9-3.2,5.3c-1.4,1.4,0.8,3.6,2.2,2.2c1.4-2.5,3.5-1.4,5.5-2.9
			c1.2-3,1.8-5.2,4.7-7.3c0.4,1.2,0.2,2.6-0.9,3.8c-1.6,3.4,2.8,3.3,3.5,0.3c-1.6,2.5,1.4,5.8,2.7,2.2c0.1-1.6,0.9-2.7,2-3.3
			c1.5,5-4.5,8.6,0,11.4c0,1,0,2,0,3.1c0,2,3.1,2,3.1,0c-0.6-2.5,1-3.7,1.5-6c-1.3-2.9-1.8-5.3-1.5-8.7c1.3,0.4,2.4,1.6,2.5,3.5
			c0.7,2.9,4.2,1.1,2.9-1.4c0.9,2.6,4.7,1.4,3-1.1c-1.1-1.2-1.3-2.6-0.9-3.8c2.9,2.1,3.5,4.3,4.7,7.3c2,1.5,4.1,0.4,5.5,2.9
			c1.4,1.4,3.6-0.8,2.2-2.2c-2.2-1.4-1.9-3.3-3.2-5.3c-3-1.1-5.1-2.5-7.2-5.1c1.3-0.6,2.9-0.6,4.3,0.7c2.6,1.7,3.7-2.3,1-3.1
			c2.4,1.2,4.2-2.3,1.3-2.9c-1.6-0.1-2.7-0.9-3.3-2c4.1-0.5,5.2,0.4,8.5,1.8c2.4-0.4,3.2-2.6,6-1.8
			C529.2,54.5,529.2,51.4,527.2,51.4z M512.3,46.9c-4.2,4.6-3.2,5-10.1,4.5C505.9,47.1,506.9,46.3,512.3,46.9z M504,39.2
			c1,5.8,0.3,6.1-4.2,10.2C499.5,43.3,499.2,42.6,504,39.2z M492.7,38.8c4.4,3.6,4.4,4.5,4,10.3C491.6,44.8,492.4,44.8,492.7,38.8z
			 M484.4,47c5.6-0.4,6.3-0.1,10.2,4.4C487.7,51.9,488.6,51.7,484.4,47z M484.4,58.6c3.6-4.4,4.5-4.4,10.3-4
			C490.1,59.8,490.6,58.8,484.4,58.6z M492.3,67.6c0.6-6-1.2-6.2,4.4-10.7C497.5,64.3,496.2,62.7,492.3,67.6z M504.3,66.8
			c-4.6-4.2-5-3.2-4.5-10.1C504.1,60.3,504.9,61.4,504.3,66.8z M512.4,58.6c-6,0.5-6,1-10.3-4C508.3,54.1,508.6,54.2,512.4,58.6z"/>
		<path class="st2" d="M187.4,939.3c-7.1,1.7-10.3-2.8-16.6-4.1c-8,3.6-14.8,5.1-24.2,4.1c1.2-3.7,4.5-6.7,9.7-7
			c8.2-1.8,3-11.6-3.8-8.1c7.2-2.4,3.9-13.1-3.1-8.5c-3.4,3.1-7.2,3.6-10.5,2.5c5.9-8.1,12-9.9,20.3-13.2c4.1-5.5,1.2-11.4,8.1-15.4
			c3.9-4-2.2-10.1-6.1-6.1c-3.8,6.2-9.3,5.3-14.6,8.9c-3.1,8.2-6.9,14.1-14.2,20.1c-1.8-3.5-1.7-8,1.9-11.8c4.5-5.9-5-10.7-7.8-4.1
			c2.8-6.6-7.2-9.9-8.4-2.6c-0.3,5.2-3.3,8.5-7,9.7c-1-9.4,0.5-16.2,4.1-24.2c-1.3-6.3-5.8-9.5-4.1-16.6c0-5.6-8.7-5.6-8.7,0
			c0,2.8,0,5.7,0,8.5c-12.6,7.7,4.3,17.9,0.1,31.7c-3.1-1.5-5.4-4.6-5.7-9.1c-1.8-8.2-11.6-3-8.1,3.8c-2.4-7.2-13.1-3.9-8.5,3.1
			c3.6,3.8,3.7,8.3,1.9,11.8c-7.4-5.9-11.1-11.8-14.3-20c-5.4-3.5-10.8-2.6-14.7-8.8c-4-3.9-10.1,2.2-6.1,6.1
			c6.9,3.9,4,9.9,8.2,15.3c8.3,3.3,14.5,5,20.4,13.1c-3.3,1.1-7.1,0.7-10.5-2.5c-6.8-4.6-10.4,5.9-3.2,8.4c-6.8-3.7-12.5,6.1-4.1,8
			c5.2,0.3,8.5,3.3,9.7,7c-9.4,1-16.2-0.5-24.2-4.1c-6.3,1.3-9.5,5.8-16.6,4.1c-5.6,0-5.6,8.7,0,8.7c2.8,0,5.7,0,8.5,0
			c7.7,12.6,17.9-4.3,31.7-0.1c-1.5,3.1-4.6,5.4-9.1,5.7c-8.2,1.8-3,11.6,3.8,8.1c-7.2,2.4-3.9,13.1,3.1,8.5
			c3.8-3.6,8.3-3.7,11.8-1.9c-5.9,7.4-11.8,11.1-20,14.3c-3.5,5.4-2.6,10.8-8.8,14.7c-3.9,4,2.2,10.1,6.1,6.1
			c3.9-6.9,9.9-4,15.3-8.2c3.3-8.3,5-14.5,13.1-20.4c1.1,3.3,0.7,7.1-2.5,10.5c-4.5,9.5,7.7,9.2,9.7,0.8c-4.6,7.1,3.9,16.1,7.4,6.2
			c0.2-4.6,2.6-7.6,5.7-9.1c4.3,13.9-12.6,24,0.1,31.7c0,2.8,0,5.7,0,8.5c0,5.6,8.7,5.6,8.7,0c-1.7-7.1,2.8-10.3,4.1-16.6
			c-3.6-8-5.1-14.8-4.1-24.2c3.7,1.2,6.7,4.5,7,9.7c1.8,8.2,11.6,3,8.1-3.8c2.4,7.2,13.1,3.9,8.5-3.1c-3.1-3.4-3.6-7.2-2.5-10.5
			c8.1,5.9,9.9,12,13.2,20.3c5.5,4.1,11.4,1.2,15.4,8.1c4,3.9,10.1-2.2,6.1-6.1c-6.2-3.8-5.3-9.3-8.9-14.6
			c-8.2-3.1-14.1-6.9-20.1-14.2c3.5-1.8,8-1.7,11.8,1.9c7.3,4.7,10.2-6.4,2.8-8.6c6.8,3.4,11.7-6.5,3.6-8.2
			c-4.6-0.2-7.6-2.6-9.1-5.7c11.3-1.5,14.5,1.2,23.6,5.1c6.8-1,8.9-7.2,16.6-5.1C193,947.9,193,939.3,187.4,939.3z M146,926.9
			c-11.7,12.7-8.8,13.9-28.2,12.5C128,927.5,131,925.3,146,926.9z M122.9,905.4c2.7,16.2,0.8,17.1-11.7,28.4
			C110.3,916.9,109.6,914.9,122.9,905.4z M91.4,904.4c12.2,10,12.2,12.5,11.2,28.8C88.3,921.1,90.5,921,91.4,904.4z M68.3,927.2
			c15.7-1.2,17.5-0.2,28.3,12.3C77.4,940.7,79.9,940.2,68.3,927.2z M68.2,959.3c10-12.2,12.5-12.2,28.8-11.2
			C84.2,962.9,85.5,960,68.2,959.3z M90.4,984.4c1.7-16.6-3.2-17.4,12.2-29.7C104.7,975.2,101,970.9,90.4,984.4z M123.8,982.2
			c-12.7-11.7-13.9-8.8-12.5-28.2C123.2,964.2,125.4,967.2,123.8,982.2z M146.3,959.3c-16.8,1.3-16.7,2.8-28.8-11.2
			C134.8,947,135.5,947.1,146.3,959.3z"/>
		<path class="st3" d="M595.8,1055.8c-10.6,2.5-15.4-4.2-24.8-6.1c-12,5.4-22.1,7.6-36.2,6.2c1.9-5.5,6.7-10.1,14.5-10.5
			c12.3-2.7,4.5-17.4-5.7-12.1c10.8-3.6,5.9-19.6-4.6-12.6c-5,4.7-10.8,5.4-15.7,3.7c8.8-12.2,18-14.7,30.4-19.7
			c6.1-8.2,1.8-17.1,12.1-23c5.9-5.9-3.3-15.1-9.2-9.1c-5.7,9.3-13.9,8-21.9,13.3c-4.7,12.3-10.3,21.1-21.2,30
			c-2.6-5.3-2.5-11.9,2.8-17.7c6.7-8.9-7.5-16-11.6-6.1c4.2-9.9-10.8-14.8-12.5-3.9c-0.4,7.8-4.9,12.6-10.5,14.5
			c-1.5-14.1,0.7-24.2,6.1-36.2c-2-9.4-8.7-14.2-6.2-24.8c0-8.3-13-8.3-13,0c0,4.3,0,8.5,0,12.8c-18.8,11.5,6.4,26.7,0.1,47.4
			c-4.6-2.3-8.1-6.8-8.5-13.7c-2.7-12.3-17.4-4.5-12.1,5.7c-3.6-10.8-19.6-5.9-12.7,4.6c5.3,5.7,5.5,12.4,2.9,17.7
			c-11-8.9-16.6-17.6-21.3-29.9c-8-5.3-16.2-3.9-21.9-13.2c-5.9-5.9-15.1,3.3-9.1,9.2c10.4,5.9,6,14.8,12.2,22.9
			c12.4,4.9,21.7,7.4,30.5,19.6c-4.9,1.7-10.6,1-15.7-3.7c-10.2-6.9-15.5,8.9-4.8,12.5c-10.2-5.5-18.8,9.1-6.1,12
			c7.8,0.4,12.6,4.9,14.5,10.5c-14.1,1.5-24.2-0.7-36.2-6.1c-9.4,2-14.2,8.7-24.8,6.2c-8.3,0-8.3,13,0,13c4.3,0,8.5,0,12.8,0
			c11.5,18.8,26.7-6.4,47.4-0.1c-2.3,4.6-6.8,8.1-13.7,8.5c-12.3,2.7-4.5,17.4,5.7,12.1c-10.8,3.6-5.9,19.6,4.6,12.7
			c5.7-5.3,12.4-5.5,17.7-2.9c-8.9,11-17.6,16.6-29.9,21.3c-5.3,8-3.9,16.2-13.2,21.9c-5.9,5.9,3.3,15.1,9.2,9.1
			c5.9-10.4,14.8-6,22.9-12.2c4.9-12.4,7.4-21.7,19.6-30.5c1.7,4.9,1,10.6-3.7,15.7c-6.7,14.2,11.5,13.8,14.5,1.2
			c-6.9,10.6,5.8,24.1,11.1,9.3c0.4-6.8,3.9-11.4,8.4-13.7c6.4,20.7-18.8,35.9,0.1,47.4c0,4.3,0,8.5,0,12.8c0,8.3,13,8.3,13,0
			c-2.5-10.6,4.2-15.4,6.1-24.8c-5.4-12-7.6-22.1-6.2-36.2c5.5,1.9,10.1,6.7,10.5,14.5c2.7,12.3,17.4,4.5,12.1-5.7
			c3.6,10.8,19.6,5.9,12.6-4.6c-4.7-5-5.4-10.8-3.7-15.7c12.2,8.8,14.7,18,19.7,30.4c8.2,6.1,17.1,1.8,23,12.1
			c5.9,5.9,15.1-3.3,9.1-9.2c-9.3-5.7-8-13.9-13.3-21.9c-12.3-4.7-21.1-10.3-30-21.2c5.3-2.6,11.9-2.5,17.7,2.8
			c10.9,7,15.2-9.6,4.1-12.9c10.1,5.1,17.4-9.7,5.4-12.2c-6.8-0.4-11.4-3.9-13.7-8.4c16.9-2.2,21.6,1.8,35.3,7.6
			c10.1-1.5,13.4-10.8,24.8-7.7C604.2,1068.7,604.1,1055.8,595.8,1055.8z M533.9,1037.3c-17.4,19-13.2,20.8-42.1,18.7
			C506.9,1038.2,511.4,1034.8,533.9,1037.3z M499.3,1005.1c4.1,24.2,1.2,25.5-17.5,42.5C480.5,1022.4,479.4,1019.4,499.3,1005.1z
			 M452.2,1003.6c18.2,15,18.2,18.6,16.7,43C447.5,1028.6,450.9,1028.5,452.2,1003.6z M417.7,1037.7c23.4-1.8,26.2-0.3,42.3,18.4
			C431.3,1057.9,435,1057.2,417.7,1037.7z M417.5,1085.7c15-18.2,18.6-18.2,43-16.7C441.5,1091,443.4,1086.8,417.5,1085.7z
			 M450.7,1123.3c2.6-24.9-4.8-26,18.3-44.4C472.1,1109.4,466.6,1103,450.7,1123.3z M500.6,1120c-19-17.4-20.8-13.2-18.7-42.1
			C499.7,1093,503.1,1097.5,500.6,1120z M534.3,1085.7c-25.1,1.9-25,4.2-43-16.7C517,1067.3,518.2,1067.4,534.3,1085.7z"/>
		<path class="st3" d="M134.3,20.5c-10.9,2.6-15.9-4.3-25.6-6.3c-12.4,5.6-22.8,7.9-37.2,6.4c1.9-5.7,6.9-10.4,14.9-10.8
			C99.1,7,91.1-8.1,80.6-2.7c11.1-3.7,6-20.2-4.8-13c-5.2,4.8-11.1,5.5-16.1,3.8C68.8-24.4,78.3-27,91-32.1
			c6.3-8.4,1.8-17.6,12.5-23.6c6.1-6.1-3.4-15.5-9.4-9.4c-5.9,9.6-14.3,8.2-22.5,13.6c-4.8,12.7-10.6,21.7-21.8,30.9
			c-2.7-5.4-2.5-12.3,2.9-18.2c6.9-9.1-7.7-16.4-12-6.3c4.3-10.2-11.1-15.3-12.9-4c-0.4,8-5.1,13-10.8,14.9
			c-1.5-14.5,0.7-24.9,6.2-37.2c-2-9.7-8.9-14.6-6.4-25.5c0-8.6-13.3-8.6-13.3,0c0,4.4,0,8.8,0,13.1C-15.8-71.9,10.2-56.2,3.7-35
			C-1-37.3-4.7-42-5-49c-2.8-12.6-17.9-4.6-12.5,5.9c-3.7-11.1-20.2-6-13,4.8c5.5,5.9,5.7,12.8,3,18.2C-38.9-29.3-44.6-38.3-49.5-51
			c-8.3-5.4-16.7-4-22.5-13.6c-6.1-6.1-15.5,3.4-9.4,9.4c10.7,6,6.2,15.2,12.5,23.6c12.8,5,22.3,7.7,31.3,20.1
			c-5,1.7-10.9,1-16.2-3.8c-10.5-7.1-16,9.1-5,12.9C-69.2-7.9-78,7.1-65,10.1c8,0.4,13,5.1,14.9,10.8c-14.5,1.5-24.9-0.7-37.2-6.2
			c-9.7,2-14.6,8.9-25.5,6.4c-8.6,0-8.6,13.3,0,13.3c4.4,0,8.8,0,13.1,0c11.8,19.4,27.5-6.6,48.8-0.1c-2.3,4.7-7,8.4-14,8.7
			c-12.6,2.8-4.6,17.9,5.9,12.5c-11.1,3.7-6,20.2,4.8,13c5.9-5.5,12.8-5.7,18.2-3c-9.1,11.3-18.1,17.1-30.8,21.9
			c-5.4,8.3-4,16.7-13.6,22.5c-6.1,6.1,3.4,15.5,9.4,9.4c6-10.7,15.2-6.2,23.6-12.5c5-12.8,7.7-22.3,20.1-31.3
			c1.7,5,1,10.9-3.8,16.2c-6.9,14.6,11.9,14.2,14.9,1.3c-7.1,10.9,5.9,24.8,11.4,9.6c0.4-7,4-11.7,8.7-14.1
			c6.5,21.3-19.4,37,0.1,48.8c0,4.4,0,8.8,0,13.1c0,8.6,13.3,8.6,13.3,0c-2.6-10.9,4.3-15.9,6.3-25.6c-5.6-12.4-7.9-22.8-6.4-37.2
			c5.7,1.9,10.4,6.9,10.8,14.9C30.8,115,46,107,40.6,96.5c3.7,11.1,20.2,6,13-4.8c-4.8-5.2-5.5-11.1-3.8-16.1
			c12.5,9,15.2,18.5,20.2,31.3c8.4,6.3,17.6,1.8,23.6,12.5c6.1,6.1,15.5-3.4,9.4-9.4c-9.6-5.9-8.2-14.3-13.6-22.5
			c-12.7-4.8-21.7-10.6-30.9-21.8c5.4-2.7,12.3-2.5,18.2,2.9C88,75.7,92.4,58.7,81,55.2c10.4,5.2,17.9-10,5.5-12.6
			c-7-0.4-11.7-4-14.1-8.7c17.3-2.3,22.3,1.9,36.4,7.8c10.4-1.5,13.7-11.2,25.5-7.9C142.9,33.8,142.9,20.5,134.3,20.5z M70.6,1.5
			C52.7,21.1,57.1,22.9,27.3,20.7C42.9,2.4,47.6-1,70.6,1.5z M35.1-31.6c4.2,24.9,1.2,26.3-18,43.7C15.7-13.9,14.6-16.9,35.1-31.6z
			 M-13.4-33.2C5.3-17.8,5.3-14,3.8,11C-18.2-7.5-14.8-7.6-13.4-33.2z M-48.9,1.9C-24.8,0-21.9,1.6-5.3,20.8
			C-34.9,22.7-31.1,22-48.9,1.9z M-49.1,51.3c15.4-18.7,19.2-18.7,44.2-17.2C-24.4,56.8-22.5,52.5-49.1,51.3z M-15,90
			c2.7-25.6-4.9-26.7,18.8-45.7C7.1,75.7,1.4,69.1-15,90z M36.4,86.5C16.8,68.6,15,73,17.2,43.2C35.5,58.8,38.9,63.5,36.4,86.5z
			 M71.1,51.3c-25.8,2-25.7,4.3-44.2-17.2C53.3,32.4,54.5,32.5,71.1,51.3z"/>
		<path class="st2" d="M272.6,721.1c-4.8,1.1-6.9-1.9-11.2-2.7c-5.4,2.4-10,3.4-16.3,2.8c0.8-2.5,3-4.5,6.5-4.7
			c5.5-1.2,2-7.8-2.6-5.5c4.9-1.6,2.6-8.8-2.1-5.7c-2.3,2.1-4.8,2.4-7,1.7c3.9-5.5,8.1-6.6,13.7-8.8c2.8-3.7,0.8-7.7,5.4-10.3
			c2.6-2.7-1.5-6.8-4.1-4.1c-2.6,4.2-6.2,3.6-9.8,6c-2.1,5.5-4.6,9.5-9.5,13.5c-1.2-2.4-1.1-5.4,1.3-8c3-4-3.4-7.2-5.2-2.7
			c1.9-4.5-4.9-6.7-5.6-1.7c-0.2,3.5-2.2,5.7-4.7,6.5c-0.7-6.3,0.3-10.9,2.7-16.3c-0.9-4.2-3.9-6.4-2.8-11.2c0-3.7-5.8-3.7-5.8,0
			c0,1.9,0,3.8,0,5.7c-8.5,5.2,2.9,12,0,21.3c-2.1-1-3.7-3.1-3.8-6.1c-1.2-5.5-7.8-2-5.5,2.6c-1.6-4.9-8.8-2.6-5.7,2.1
			c2.4,2.6,2.5,5.6,1.3,8c-4.9-4-7.5-7.9-9.6-13.4c-3.6-2.4-7.3-1.8-9.9-5.9c-2.7-2.6-6.8,1.5-4.1,4.1c4.7,2.6,2.7,6.6,5.5,10.3
			c5.6,2.2,9.7,3.3,13.7,8.8c-2.2,0.8-4.8,0.4-7.1-1.7c-4.6-3.1-7,4-2.2,5.6c-4.6-2.5-8.4,4.1-2.8,5.4c3.5,0.2,5.7,2.2,6.5,4.7
			c-6.3,0.7-10.9-0.3-16.3-2.7c-4.2,0.9-6.4,3.9-11.2,2.8c-3.7,0-3.7,5.8,0,5.8c1.9,0,3.8,0,5.7,0c5.2,8.5,12-2.9,21.3,0
			c-1,2.1-3.1,3.6-6.1,3.8c-5.5,1.2-2,7.8,2.6,5.5c-4.9,1.6-2.6,8.8,2.1,5.7c2.6-2.4,5.6-2.5,8-1.3c-4,4.9-7.9,7.5-13.4,9.6
			c-2.4,3.6-1.8,7.3-5.9,9.9c-2.6,2.7,1.5,6.8,4.1,4.1c2.6-4.7,6.6-2.7,10.3-5.5c2.2-5.6,3.3-9.7,8.8-13.7c0.8,2.2,0.4,4.8-1.7,7.1
			c-3,6.4,5.2,6.2,6.5,0.6c-3.1,4.8,2.6,10.8,5,4.2c0.2-3.1,1.7-5.1,3.8-6.1c2.9,9.3-8.5,16.1,0,21.3c0,1.9,0,3.8,0,5.7
			c0,3.7,5.8,3.7,5.8,0c-1.1-4.8,1.9-6.9,2.7-11.2c-2.4-5.4-3.4-10-2.8-16.3c2.5,0.8,4.5,3,4.7,6.5c1.2,5.5,7.8,2,5.5-2.6
			c1.6,4.9,8.8,2.6,5.7-2.1c-2.1-2.3-2.4-4.8-1.7-7c5.5,3.9,6.6,8.1,8.8,13.7c3.7,2.8,7.7,0.8,10.3,5.4c2.7,2.6,6.8-1.5,4.1-4.1
			c-4.2-2.6-3.6-6.2-6-9.8c-5.5-2.1-9.5-4.6-13.5-9.5c2.4-1.2,5.4-1.1,8,1.3c4.9,3.1,6.8-4.3,1.9-5.8c4.6,2.3,7.8-4.4,2.4-5.5
			c-3.1-0.2-5.1-1.7-6.1-3.8c7.6-1,9.7,0.8,15.9,3.4c4.6-0.7,6-4.9,11.2-3.5C276.3,726.9,276.3,721.1,272.6,721.1z M244.7,712.8
			c-7.8,8.6-5.9,9.3-18.9,8.4C232.6,713.2,234.6,711.7,244.7,712.8z M229.2,698.3c1.8,10.9,0.5,11.5-7.9,19.1
			C220.7,706.1,220.3,704.7,229.2,698.3z M208,697.6c8.2,6.7,8.2,8.4,7.5,19.3C205.9,708.9,207.4,708.8,208,697.6z M192.5,713
			c10.5-0.8,11.8-0.2,19,8.3C198.6,722.1,200.3,721.7,192.5,713z M192.4,734.5c6.7-8.2,8.4-8.2,19.3-7.5
			C203.2,736.9,204,735.1,192.4,734.5z M207.3,751.4c1.2-11.2-2.2-11.7,8.2-20C217,745.2,214.5,742.3,207.3,751.4z M229.8,749.9
			c-8.6-7.8-9.3-5.9-8.4-18.9C229.4,737.8,230.9,739.9,229.8,749.9z M244.9,734.5c-11.3,0.9-11.2,1.9-19.3-7.5
			C237.2,726.3,237.7,726.3,244.9,734.5z"/>
		<path class="st2" d="M146.1,233c-3.5,0.8-5.2-1.4-8.3-2c-4,1.8-7.4,2.5-12.1,2.1c0.6-1.8,2.2-3.4,4.8-3.5c4.1-0.9,1.5-5.8-1.9-4.1
			c3.6-1.2,2-6.5-1.5-4.2c-1.7,1.6-3.6,1.8-5.2,1.2c2.9-4.1,6-4.9,10.1-6.6c2.1-2.7,0.6-5.7,4-7.7c2-2-1.1-5-3.1-3.1
			c-1.9,3.1-4.6,2.7-7.3,4.4c-1.6,4.1-3.4,7-7.1,10c-0.9-1.8-0.8-4,0.9-5.9c2.2-3-2.5-5.3-3.9-2c1.4-3.3-3.6-5-4.2-1.3
			c-0.1,2.6-1.6,4.2-3.5,4.8c-0.5-4.7,0.2-8.1,2-12.1c-0.7-3.1-2.9-4.7-2.1-8.3c0-2.8-4.3-2.8-4.3,0c0,1.4,0,2.8,0,4.3
			c-6.3,3.8,2.1,8.9,0,15.8c-1.5-0.8-2.7-2.3-2.8-4.6c-0.9-4.1-5.8-1.5-4.1,1.9c-1.2-3.6-6.5-2-4.2,1.5c1.8,1.9,1.8,4.1,1,5.9
			c-3.7-3-5.5-5.9-7.1-10c-2.7-1.8-5.4-1.3-7.3-4.4c-2-2-5,1.1-3.1,3.1c3.5,2,2,4.9,4.1,7.7c4.1,1.6,7.2,2.5,10.2,6.5
			c-1.6,0.6-3.5,0.3-5.2-1.2c-3.4-2.3-5.2,3-1.6,4.2c-3.4-1.8-6.3,3-2,4c2.6,0.1,4.2,1.6,4.8,3.5c-4.7,0.5-8.1-0.2-12.1-2
			c-3.1,0.7-4.7,2.9-8.3,2.1c-2.8,0-2.8,4.3,0,4.3c1.4,0,2.8,0,4.3,0c3.8,6.3,8.9-2.1,15.8,0c-0.8,1.5-2.3,2.7-4.6,2.8
			c-4.1,0.9-1.5,5.8,1.9,4.1c-3.6,1.2-2,6.5,1.5,4.2c1.9-1.8,4.1-1.8,5.9-1c-3,3.7-5.9,5.5-10,7.1c-1.8,2.7-1.3,5.4-4.4,7.3
			c-2,2,1.1,5,3.1,3.1c2-3.5,4.9-2,7.7-4.1c1.6-4.1,2.5-7.2,6.5-10.2c0.6,1.6,0.3,3.5-1.2,5.2c-2.2,4.7,3.8,4.6,4.8,0.4
			c-2.3,3.5,1.9,8,3.7,3.1c0.1-2.3,1.3-3.8,2.8-4.6c2.1,6.9-6.3,12,0,15.8c0,1.4,0,2.8,0,4.3c0,2.8,4.3,2.8,4.3,0
			c-0.8-3.5,1.4-5.2,2-8.3c-1.8-4-2.5-7.4-2.1-12.1c1.8,0.6,3.4,2.2,3.5,4.8c0.9,4.1,5.8,1.5,4.1-1.9c1.2,3.6,6.5,2,4.2-1.5
			c-1.6-1.7-1.8-3.6-1.2-5.2c4.1,2.9,4.9,6,6.6,10.1c2.7,2,5.7,0.6,7.7,4c2,2,5-1.1,3.1-3.1c-3.1-1.9-2.7-4.6-4.4-7.3
			c-4.1-1.6-7-3.4-10-7.1c1.8-0.9,4-0.8,5.9,0.9c3.6,2.3,5.1-3.2,1.4-4.3c3.4,1.7,5.8-3.2,1.8-4.1c-2.3-0.1-3.8-1.3-4.6-2.8
			c5.6-0.7,7.2,0.6,11.8,2.5c3.4-0.5,4.5-3.6,8.3-2.6C148.9,237.3,148.9,233,146.1,233z M125.5,226.8c-5.8,6.4-4.4,6.9-14.1,6.2
			C116.5,227.1,118,226,125.5,226.8z M113.9,216.1c1.4,8.1,0.4,8.5-5.8,14.2C107.7,221.8,107.3,220.8,113.9,216.1z M98.2,215.6
			c6.1,5,6.1,6.2,5.6,14.3C96.6,223.9,97.8,223.9,98.2,215.6z M86.7,226.9c7.8-0.6,8.7-0.1,14.1,6.1
			C91.3,233.7,92.5,233.4,86.7,226.9z M86.6,243c5-6.1,6.2-6.1,14.3-5.6C94.6,244.7,95.3,243.3,86.6,243z M97.7,255.5
			c0.9-8.3-1.6-8.7,6.1-14.8C104.9,250.9,103,248.7,97.7,255.5z M114.4,254.4c-6.4-5.8-6.9-4.4-6.2-14.1
			C114.1,245.4,115.2,246.9,114.4,254.4z M125.6,243c-8.4,0.6-8.3,1.4-14.3-5.6C119.9,236.8,120.2,236.9,125.6,243z"/>
	</g>
	<g style="clip-path:url(#SVGID_00000111171181390605347110000009052454324259576499_);">
		<path class="st2" d="M1722.2,620.9c6.6-1.6,9.6,2.6,15.5,3.8c7.5-3.4,13.8-4.8,22.6-3.9c-1.2,3.5-4.2,6.3-9.1,6.6
			c-7.7,1.7-2.8,10.9,3.6,7.6c-6.8,2.2-3.7,12.2,2.9,7.9c3.1-2.9,6.7-3.4,9.8-2.3c-5.5,7.6-11.3,9.2-19,12.3
			c-3.8,5.1-1.1,10.7-7.6,14.4c-3.7,3.7,2.1,9.4,5.7,5.7c3.6-5.8,8.7-5,13.7-8.3c2.9-7.7,6.4-13.2,13.3-18.7
			c1.7,3.3,1.5,7.5-1.8,11.1c-4.2,5.6,4.7,10,7.3,3.8c-2.6,6.2,6.8,9.3,7.8,2.4c0.3-4.9,3.1-7.9,6.5-9.1c0.9,8.8-0.4,15.1-3.8,22.6
			c1.2,5.9,5.4,8.9,3.9,15.5c0,5.2,8.1,5.2,8.1,0c0-2.7,0-5.3,0-8c11.8-7.2-4-16.7-0.1-29.6c2.9,1.4,5.1,4.3,5.3,8.5
			c1.7,7.7,10.9,2.8,7.6-3.6c2.2,6.8,12.2,3.7,7.9-2.9c-3.3-3.6-3.4-7.8-1.8-11.1c6.9,5.6,10.4,11,13.3,18.7
			c5,3.3,10.1,2.5,13.7,8.2c3.7,3.7,9.4-2.1,5.7-5.7c-6.5-3.7-3.8-9.2-7.6-14.3c-7.7-3-13.5-4.7-19-12.2c3.1-1,6.6-0.6,9.8,2.3
			c6.4,4.3,9.7-5.6,3-7.8c6.4,3.4,11.7-5.7,3.8-7.5c-4.9-0.3-7.9-3.1-9.1-6.5c8.8-0.9,15.1,0.4,22.6,3.8c5.9-1.2,8.9-5.4,15.5-3.9
			c5.2,0,5.2-8.1,0-8.1c-2.7,0-5.3,0-8,0c-7.2-11.8-16.7,4-29.6,0.1c1.4-2.9,4.3-5.1,8.5-5.3c7.7-1.7,2.8-10.9-3.6-7.6
			c6.8-2.2,3.7-12.2-2.9-7.9c-3.6,3.3-7.8,3.4-11.1,1.8c5.6-6.9,11-10.4,18.7-13.3c3.3-5,2.5-10.1,8.2-13.7c3.7-3.7-2.1-9.4-5.7-5.7
			c-3.7,6.5-9.2,3.8-14.3,7.6c-3,7.7-4.7,13.5-12.2,19c-1-3.1-0.6-6.6,2.3-9.8c4.2-8.9-7.2-8.6-9-0.8c4.3-6.6-3.6-15.1-6.9-5.8
			c-0.2,4.3-2.4,7.1-5.3,8.5c-4-12.9,11.8-22.5-0.1-29.6c0-2.7,0-5.3,0-8c0-5.2-8.1-5.2-8.1,0c1.6,6.6-2.6,9.6-3.8,15.5
			c3.4,7.5,4.8,13.8,3.9,22.6c-3.5-1.2-6.3-4.2-6.6-9.1c-1.7-7.7-10.9-2.8-7.6,3.6c-2.2-6.8-12.2-3.7-7.9,2.9
			c2.9,3.1,3.4,6.7,2.3,9.8c-7.6-5.5-9.2-11.3-12.3-19c-5.1-3.8-10.7-1.1-14.4-7.6c-3.7-3.7-9.4,2.1-5.7,5.7c5.8,3.6,5,8.7,8.3,13.7
			c7.7,2.9,13.2,6.4,18.7,13.3c-3.3,1.7-7.5,1.5-11.1-1.8c-6.8-4.3-9.5,6-2.6,8.1c-6.3-3.2-10.9,6.1-3.4,7.6
			c4.3,0.2,7.1,2.4,8.5,5.3c-10.5,1.4-13.5-1.1-22.1-4.7c-6.3,0.9-8.3,6.8-15.5,4.8C1717,612.8,1717,620.9,1722.2,620.9z
			 M1760.9,632.5c10.9-11.9,8.2-13,26.3-11.7C1777.7,632,1774.9,634,1760.9,632.5z M1782.5,652.6c-2.6-15.1-0.7-16,10.9-26.5
			C1794.2,641.8,1794.9,643.7,1782.5,652.6z M1811.9,653.6c-11.4-9.4-11.4-11.6-10.4-26.9C1814.9,637.9,1812.8,638,1811.9,653.6z
			 M1833.5,632.3c-14.6,1.1-16.4,0.2-26.4-11.5C1825,619.6,1822.7,620.1,1833.5,632.3z M1833.6,602.3c-9.4,11.4-11.6,11.4-26.9,10.4
			C1818.6,598.9,1817.4,601.5,1833.6,602.3z M1812.9,578.7c-1.6,15.5,3,16.2-11.4,27.8C1799.5,587.4,1802.9,591.4,1812.9,578.7z
			 M1781.7,580.8c11.9,10.9,13,8.2,11.7,26.3C1782.2,597.7,1780.1,594.9,1781.7,580.8z M1760.6,602.3c15.7-1.2,15.6-2.6,26.9,10.5
			C1771.4,613.7,1770.7,613.7,1760.6,602.3z"/>
		<path class="st2" d="M1504.4,973.9c8.2-2,11.9,3.2,19.2,4.7c9.3-4.2,17.1-5.9,28-4.8c-1.4,4.3-5.2,7.8-11.2,8.1
			c-9.5,2.1-3.5,13.4,4.4,9.4c-8.4,2.8-4.5,15.1,3.6,9.8c3.9-3.6,8.3-4.2,12.1-2.9c-6.8,9.4-13.9,11.4-23.5,15.2
			c-4.7,6.3-1.4,13.2-9.4,17.8c-4.5,4.6,2.5,11.6,7.1,7.1c4.4-7.2,10.7-6.2,16.9-10.2c3.6-9.5,7.9-16.3,16.4-23.2
			c2,4.1,1.9,9.2-2.2,13.7c-5.2,6.9,5.8,12.4,9,4.7c-3.2,7.7,8.4,11.5,9.7,3c0.3-6,3.8-9.8,8.1-11.2c1.2,10.9-0.6,18.7-4.7,28
			c1.5,7.3,6.7,11,4.8,19.2c0,6.4,10,6.4,10,0c0-3.3,0-6.6,0-9.9c14.6-8.9-4.9-20.7-0.1-36.6c3.5,1.8,6.3,5.3,6.6,10.5
			c2.1,9.5,13.4,3.5,9.4-4.4c2.8,8.4,15.1,4.5,9.8-3.6c-4.1-4.4-4.3-9.6-2.2-13.7c8.5,6.9,12.8,13.6,16.5,23.1
			c6.2,4.1,12.5,3,16.9,10.2c4.6,4.5,11.6-2.5,7.1-7.1c-8-4.5-4.6-11.4-9.4-17.7c-9.6-3.8-16.7-5.8-23.5-15.1
			c3.8-1.3,8.2-0.8,12.1,2.8c7.9,5.3,12-6.9,3.7-9.7c7.9,4.2,14.5-7,4.7-9.3c-6-0.3-9.8-3.8-11.2-8.1c10.9-1.2,18.7,0.6,28,4.7
			c7.3-1.5,11-6.7,19.2-4.8c6.4,0,6.4-10,0-10c-3.3,0-6.6,0-9.9,0c-8.9-14.6-20.7,4.9-36.6,0.1c1.8-3.5,5.3-6.3,10.5-6.6
			c9.5-2.1,3.5-13.4-4.4-9.4c8.4-2.8,4.5-15.1-3.6-9.8c-4.4,4.1-9.6,4.3-13.7,2.2c6.9-8.5,13.6-12.8,23.1-16.5
			c4.1-6.2,3-12.5,10.2-16.9c4.5-4.6-2.5-11.6-7.1-7.1c-4.5,8-11.4,4.6-17.7,9.4c-3.8,9.6-5.8,16.7-15.1,23.5
			c-1.3-3.8-0.8-8.2,2.8-12.1c5.2-11-8.9-10.6-11.2-1c5.3-8.2-4.5-18.6-8.6-7.2c-0.3,5.3-3,8.8-6.5,10.6c-4.9-16,14.5-27.8-0.1-36.6
			c0-3.3,0-6.6,0-9.9c0-6.4-10-6.4-10,0c2,8.2-3.2,11.9-4.7,19.2c4.2,9.3,5.9,17.1,4.8,28c-4.3-1.4-7.8-5.2-8.1-11.2
			c-2.1-9.5-13.4-3.5-9.4,4.4c-2.8-8.4-15.1-4.5-9.8,3.6c3.6,3.9,4.2,8.3,2.9,12.1c-9.4-6.8-11.4-13.9-15.2-23.5
			c-6.3-4.7-13.2-1.4-17.8-9.4c-4.6-4.5-11.6,2.5-7.1,7.1c7.2,4.4,6.2,10.7,10.2,16.9c9.5,3.6,16.3,7.9,23.2,16.4
			c-4.1,2-9.2,1.9-13.7-2.2c-8.4-5.4-11.8,7.4-3.2,10c-7.8-3.9-13.5,7.5-4.1,9.4c5.3,0.3,8.8,3,10.6,6.5c-13,1.7-16.7-1.4-27.3-5.9
			c-7.8,1.1-10.3,8.4-19.2,5.9C1498,963.9,1498,973.9,1504.4,973.9z M1552.3,988.2c13.5-14.7,10.2-16,32.6-14.4
			C1573.1,987.6,1569.6,990.1,1552.3,988.2z M1579,1013.1c-3.2-18.7-0.9-19.7,13.5-32.8C1593.5,999.8,1594.3,1002,1579,1013.1z
			 M1615.4,1014.3c-14-11.6-14.1-14.4-12.9-33.2C1619,994.9,1616.4,995,1615.4,1014.3z M1642,987.9c-18.1,1.4-20.2,0.3-32.7-14.2
			C1631.5,972.3,1628.7,972.9,1642,987.9z M1642.2,950.8c-11.6,14-14.4,14.1-33.2,12.9C1623.7,946.7,1622.2,950,1642.2,950.8z
			 M1616.6,921.8c-2,19.2,3.7,20.1-14.1,34.3C1600,932.5,1604.3,937.4,1616.6,921.8z M1578,924.4c14.7,13.5,16,10.2,14.4,32.6
			C1578.7,945.2,1576.1,941.7,1578,924.4z M1551.9,950.8c19.4-1.5,19.3-3.2,33.2,12.9C1565.3,965,1564.4,964.9,1551.9,950.8z"/>
		<path class="st3" d="M1543,581.5c3.3-0.8,4.8,1.3,7.7,1.9c3.7-1.7,6.9-2.4,11.3-1.9c-0.6,1.7-2.1,3.1-4.5,3.3
			c-3.8,0.8-1.4,5.4,1.8,3.8c-3.4,1.1-1.8,6.1,1.4,3.9c1.6-1.5,3.4-1.7,4.9-1.2c-2.7,3.8-5.6,4.6-9.5,6.1c-1.9,2.6-0.6,5.3-3.8,7.2
			c-1.8,1.8,1,4.7,2.9,2.9c1.8-2.9,4.3-2.5,6.8-4.1c1.5-3.8,3.2-6.6,6.6-9.4c0.8,1.6,0.8,3.7-0.9,5.5c-2.1,2.8,2.3,5,3.6,1.9
			c-1.3,3.1,3.4,4.6,3.9,1.2c0.1-2.4,1.5-3.9,3.3-4.5c0.5,4.4-0.2,7.5-1.9,11.3c0.6,2.9,2.7,4.4,1.9,7.7c0,2.6,4,2.6,4,0
			c0-1.3,0-2.7,0-4c5.9-3.6-2-8.3,0-14.8c1.4,0.7,2.5,2.1,2.7,4.3c0.8,3.8,5.4,1.4,3.8-1.8c1.1,3.4,6.1,1.8,3.9-1.4
			c-1.7-1.8-1.7-3.9-0.9-5.5c3.4,2.8,5.2,5.5,6.7,9.3c2.5,1.6,5.1,1.2,6.8,4.1c1.8,1.8,4.7-1,2.9-2.9c-3.2-1.8-1.9-4.6-3.8-7.2
			c-3.9-1.5-6.8-2.3-9.5-6.1c1.5-0.5,3.3-0.3,4.9,1.1c3.2,2.1,4.8-2.8,1.5-3.9c3.2,1.7,5.9-2.8,1.9-3.8c-2.4-0.1-3.9-1.5-4.5-3.3
			c4.4-0.5,7.5,0.2,11.3,1.9c2.9-0.6,4.4-2.7,7.7-1.9c2.6,0,2.6-4,0-4c-1.3,0-2.7,0-4,0c-3.6-5.9-8.3,2-14.8,0
			c0.7-1.4,2.1-2.5,4.3-2.7c3.8-0.8,1.4-5.4-1.8-3.8c3.4-1.1,1.8-6.1-1.4-3.9c-1.8,1.7-3.9,1.7-5.5,0.9c2.8-3.4,5.5-5.2,9.3-6.7
			c1.6-2.5,1.2-5.1,4.1-6.8c1.8-1.8-1-4.7-2.9-2.9c-1.8,3.2-4.6,1.9-7.2,3.8c-1.5,3.9-2.3,6.8-6.1,9.5c-0.5-1.5-0.3-3.3,1.1-4.9
			c2.1-4.4-3.6-4.3-4.5-0.4c2.1-3.3-1.8-7.5-3.5-2.9c-0.1,2.1-1.2,3.5-2.6,4.3c-2-6.5,5.9-11.2,0-14.8c0-1.3,0-2.7,0-4
			c0-2.6-4-2.6-4,0c0.8,3.3-1.3,4.8-1.9,7.7c1.7,3.7,2.4,6.9,1.9,11.3c-1.7-0.6-3.1-2.1-3.3-4.5c-0.8-3.8-5.4-1.4-3.8,1.8
			c-1.1-3.4-6.1-1.8-3.9,1.4c1.5,1.6,1.7,3.4,1.2,4.9c-3.8-2.7-4.6-5.6-6.1-9.5c-2.6-1.9-5.3-0.6-7.2-3.8c-1.8-1.8-4.7,1-2.9,2.9
			c2.9,1.8,2.5,4.3,4.1,6.8c3.8,1.5,6.6,3.2,9.4,6.6c-1.6,0.8-3.7,0.8-5.5-0.9c-3.4-2.2-4.8,3-1.3,4c-3.2-1.6-5.4,3-1.7,3.8
			c2.1,0.1,3.5,1.2,4.3,2.6c-5.3,0.7-6.7-0.6-11-2.4c-3.2,0.5-4.2,3.4-7.7,2.4C1540.4,577.4,1540.4,581.5,1543,581.5z M1562.4,587.2
			c5.4-5.9,4.1-6.5,13.1-5.8C1570.8,587,1569.4,588,1562.4,587.2z M1573.1,597.3c-1.3-7.6-0.4-8,5.5-13.2
			C1579,591.9,1579.3,592.8,1573.1,597.3z M1587.8,597.7c-5.7-4.7-5.7-5.8-5.2-13.4C1589.3,589.9,1588.2,590,1587.8,597.7z
			 M1598.6,587.1c-7.3,0.6-8.2,0.1-13.2-5.7C1594.3,580.8,1593.2,581,1598.6,587.1z M1598.7,572.1c-4.7,5.7-5.8,5.7-13.4,5.2
			C1591.2,570.5,1590.6,571.8,1598.7,572.1z M1588.3,560.4c-0.8,7.8,1.5,8.1-5.7,13.9C1581.6,564.7,1583.3,566.7,1588.3,560.4z
			 M1572.7,561.5c5.9,5.4,6.5,4.1,5.8,13.1C1573,569.9,1572,568.4,1572.7,561.5z M1562.2,572.1c7.8-0.6,7.8-1.3,13.4,5.2
			C1567.6,577.9,1567.3,577.8,1562.2,572.1z"/>
		<path class="st3" d="M1806.9,362.4c2.6-0.6,3.7,1,6,1.5c2.9-1.3,5.3-1.8,8.7-1.5c-0.4,1.3-1.6,2.4-3.5,2.5
			c-2.9,0.7-1.1,4.2,1.4,2.9c-2.6,0.9-1.4,4.7,1.1,3c1.2-1.1,2.6-1.3,3.8-0.9c-2.1,2.9-4.3,3.5-7.3,4.7c-1.5,2-0.4,4.1-2.9,5.5
			c-1.4,1.4,0.8,3.6,2.2,2.2c1.4-2.2,3.3-1.9,5.3-3.2c1.1-3,2.5-5.1,5.1-7.2c0.6,1.3,0.6,2.9-0.7,4.3c-1.6,2.1,1.8,3.8,2.8,1.5
			c-1,2.4,2.6,3.6,3,0.9c0.1-1.9,1.2-3,2.5-3.5c0.4,3.4-0.2,5.8-1.5,8.7c0.5,2.3,2.1,3.4,1.5,6c0,2,3.1,2,3.1,0c0-1,0-2,0-3.1
			c4.5-2.8-1.5-6.4,0-11.4c1.1,0.5,2,1.6,2,3.3c0.7,2.9,4.2,1.1,2.9-1.4c0.9,2.6,4.7,1.4,3-1.1c-1.3-1.4-1.3-3-0.7-4.3
			c2.6,2.1,4,4.2,5.1,7.2c1.9,1.3,3.9,0.9,5.3,3.2c1.4,1.4,3.6-0.8,2.2-2.2c-2.5-1.4-1.4-3.5-2.9-5.5c-3-1.2-5.2-1.8-7.3-4.7
			c1.2-0.4,2.6-0.2,3.8,0.9c2.5,1.7,3.7-2.1,1.2-3c2.5,1.3,4.5-2.2,1.5-2.9c-1.9-0.1-3-1.2-3.5-2.5c3.4-0.4,5.8,0.2,8.7,1.5
			c2.3-0.5,3.4-2.1,6-1.5c2,0,2-3.1,0-3.1c-1,0-2,0-3.1,0c-2.8-4.5-6.4,1.5-11.4,0c0.5-1.1,1.6-2,3.3-2c2.9-0.7,1.1-4.2-1.4-2.9
			c2.6-0.9,1.4-4.7-1.1-3c-1.4,1.3-3,1.3-4.3,0.7c2.1-2.6,4.2-4,7.2-5.1c1.3-1.9,0.9-3.9,3.2-5.3c1.4-1.4-0.8-3.6-2.2-2.2
			c-1.4,2.5-3.5,1.4-5.5,2.9c-1.2,3-1.8,5.2-4.7,7.3c-0.4-1.2-0.2-2.6,0.9-3.8c1.6-3.4-2.8-3.3-3.5-0.3c1.6-2.5-1.4-5.8-2.7-2.2
			c-0.1,1.6-0.9,2.7-2,3.3c-1.5-5,4.5-8.6,0-11.4c0-1,0-2,0-3.1c0-2-3.1-2-3.1,0c0.6,2.5-1,3.7-1.5,6c1.3,2.9,1.8,5.3,1.5,8.7
			c-1.3-0.4-2.4-1.6-2.5-3.5c-0.7-2.9-4.2-1.1-2.9,1.4c-0.9-2.6-4.7-1.4-3,1.1c1.1,1.2,1.3,2.6,0.9,3.8c-2.9-2.1-3.5-4.3-4.7-7.3
			c-2-1.5-4.1-0.4-5.5-2.9c-1.4-1.4-3.6,0.8-2.2,2.2c2.2,1.4,1.9,3.3,3.2,5.3c3,1.1,5.1,2.5,7.2,5.1c-1.3,0.6-2.9,0.6-4.3-0.7
			c-2.6-1.7-3.7,2.3-1,3.1c-2.4-1.2-4.2,2.3-1.3,2.9c1.6,0.1,2.7,0.9,3.3,2c-4.1,0.5-5.2-0.4-8.5-1.8c-2.4,0.4-3.2,2.6-6,1.8
			C1804.9,359.3,1804.9,362.4,1806.9,362.4z M1821.8,366.9c4.2-4.6,3.2-5,10.1-4.5C1828.3,366.7,1827.2,367.5,1821.8,366.9z
			 M1830.1,374.6c-1-5.8-0.3-6.1,4.2-10.2C1834.6,370.5,1834.9,371.2,1830.1,374.6z M1841.4,375c-4.4-3.6-4.4-4.5-4-10.3
			C1842.6,369,1841.8,369,1841.4,375z M1849.7,366.8c-5.6,0.4-6.3,0.1-10.2-4.4C1846.5,361.9,1845.6,362.1,1849.7,366.8z
			 M1849.8,355.3c-3.6,4.4-4.5,4.4-10.3,4C1844,354,1843.6,355,1849.8,355.3z M1841.8,346.2c-0.6,6,1.2,6.2-4.4,10.7
			C1836.7,349.5,1838,351.1,1841.8,346.2z M1829.8,347c4.6,4.2,5,3.2,4.5,10.1C1830,353.5,1829.2,352.4,1829.8,347z M1821.7,355.3
			c6-0.5,6-1,10.3,4C1825.9,359.7,1825.6,359.6,1821.7,355.3z"/>
		<path class="st3" d="M1529.1,219c2.6-0.6,3.7,1,6,1.5c2.9-1.3,5.3-1.8,8.7-1.5c-0.4,1.3-1.6,2.4-3.5,2.5c-2.9,0.7-1.1,4.2,1.4,2.9
			c-2.6,0.9-1.4,4.7,1.1,3c1.2-1.1,2.6-1.3,3.8-0.9c-2.1,2.9-4.3,3.5-7.3,4.7c-1.5,2-0.4,4.1-2.9,5.5c-1.4,1.4,0.8,3.6,2.2,2.2
			c1.4-2.2,3.3-1.9,5.3-3.2c1.1-3,2.5-5.1,5.1-7.2c0.6,1.3,0.6,2.9-0.7,4.3c-1.6,2.1,1.8,3.8,2.8,1.5c-1,2.4,2.6,3.6,3,0.9
			c0.1-1.9,1.2-3,2.5-3.5c0.4,3.4-0.2,5.8-1.5,8.7c0.5,2.3,2.1,3.4,1.5,6c0,2,3.1,2,3.1,0c0-1,0-2,0-3.1c4.5-2.8-1.5-6.4,0-11.4
			c1.1,0.5,2,1.6,2,3.3c0.7,2.9,4.2,1.1,2.9-1.4c0.9,2.6,4.7,1.4,3-1.1c-1.3-1.4-1.3-3-0.7-4.3c2.6,2.1,4,4.2,5.1,7.2
			c1.9,1.3,3.9,0.9,5.3,3.2c1.4,1.4,3.6-0.8,2.2-2.2c-2.5-1.4-1.4-3.5-2.9-5.5c-3-1.2-5.2-1.8-7.3-4.7c1.2-0.4,2.6-0.2,3.8,0.9
			c2.5,1.7,3.7-2.1,1.2-3c2.5,1.3,4.5-2.2,1.5-2.9c-1.9-0.1-3-1.2-3.5-2.5c3.4-0.4,5.8,0.2,8.7,1.5c2.3-0.5,3.4-2.1,6-1.5
			c2,0,2-3.1,0-3.1c-1,0-2,0-3.1,0c-2.8-4.5-6.4,1.5-11.4,0c0.5-1.1,1.6-2,3.3-2c2.9-0.7,1.1-4.2-1.4-2.9c2.6-0.9,1.4-4.7-1.1-3
			c-1.4,1.3-3,1.3-4.3,0.7c2.1-2.6,4.2-4,7.2-5.1c1.3-1.9,0.9-3.9,3.2-5.3c1.4-1.4-0.8-3.6-2.2-2.2c-1.4,2.5-3.5,1.4-5.5,2.9
			c-1.2,3-1.8,5.2-4.7,7.3c-0.4-1.2-0.2-2.6,0.9-3.8c1.6-3.4-2.8-3.3-3.5-0.3c1.6-2.5-1.4-5.8-2.7-2.2c-0.1,1.6-0.9,2.7-2,3.3
			c-1.5-5,4.5-8.6,0-11.4c0-1,0-2,0-3.1c0-2-3.1-2-3.1,0c0.6,2.5-1,3.7-1.5,6c1.3,2.9,1.8,5.3,1.5,8.7c-1.3-0.4-2.4-1.6-2.5-3.5
			c-0.7-2.9-4.2-1.1-2.9,1.4c-0.9-2.6-4.7-1.4-3,1.1c1.1,1.2,1.3,2.6,0.9,3.8c-2.9-2.1-3.5-4.3-4.7-7.3c-2-1.5-4.1-0.4-5.5-2.9
			c-1.4-1.4-3.6,0.8-2.2,2.2c2.2,1.4,1.9,3.3,3.2,5.3c3,1.1,5.1,2.5,7.2,5.1c-1.3,0.6-2.9,0.6-4.3-0.7c-2.6-1.7-3.7,2.3-1,3.1
			c-2.4-1.2-4.2,2.3-1.3,2.9c1.6,0.1,2.7,0.9,3.3,2c-4.1,0.5-5.2-0.4-8.5-1.8c-2.4,0.4-3.2,2.6-6,1.8
			C1527.1,215.9,1527.1,219,1529.1,219z M1544,223.4c4.2-4.6,3.2-5,10.1-4.5C1550.4,223.2,1549.3,224,1544,223.4z M1552.3,231.2
			c-1-5.8-0.3-6.1,4.2-10.2C1556.8,227,1557,227.7,1552.3,231.2z M1563.6,231.5c-4.4-3.6-4.4-4.5-4-10.3
			C1564.7,225.5,1563.9,225.6,1563.6,231.5z M1571.9,223.3c-5.6,0.4-6.3,0.1-10.2-4.4C1568.6,218.5,1567.7,218.7,1571.9,223.3z
			 M1571.9,211.8c-3.6,4.4-4.5,4.4-10.3,4C1566.2,210.5,1565.7,211.5,1571.9,211.8z M1564,202.8c-0.6,6,1.2,6.2-4.4,10.7
			C1558.8,206.1,1560.1,207.6,1564,202.8z M1552,203.6c4.6,4.2,5,3.2,4.5,10.1C1552.2,210,1551.4,209,1552,203.6z M1543.8,211.8
			c6-0.5,6-1,10.3,4C1548,216.2,1547.7,216.2,1543.8,211.8z"/>
		<path class="st3" d="M1375.9,1037c2.6-0.6,3.7,1,6,1.5c2.9-1.3,5.3-1.8,8.7-1.5c-0.4,1.3-1.6,2.4-3.5,2.5
			c-2.9,0.7-1.1,4.2,1.4,2.9c-2.6,0.9-1.4,4.7,1.1,3c1.2-1.1,2.6-1.3,3.8-0.9c-2.1,2.9-4.3,3.5-7.3,4.7c-1.5,2-0.4,4.1-2.9,5.5
			c-1.4,1.4,0.8,3.6,2.2,2.2c1.4-2.2,3.3-1.9,5.3-3.2c1.1-3,2.5-5.1,5.1-7.2c0.6,1.3,0.6,2.9-0.7,4.3c-1.6,2.1,1.8,3.8,2.8,1.5
			c-1,2.4,2.6,3.6,3,0.9c0.1-1.9,1.2-3,2.5-3.5c0.4,3.4-0.2,5.8-1.5,8.7c0.5,2.3,2.1,3.4,1.5,6c0,2,3.1,2,3.1,0c0-1,0-2,0-3.1
			c4.5-2.8-1.5-6.4,0-11.4c1.1,0.5,2,1.6,2,3.3c0.7,2.9,4.2,1.1,2.9-1.4c0.9,2.6,4.7,1.4,3-1.1c-1.3-1.4-1.3-3-0.7-4.3
			c2.6,2.1,4,4.2,5.1,7.2c1.9,1.3,3.9,0.9,5.3,3.2c1.4,1.4,3.6-0.8,2.2-2.2c-2.5-1.4-1.4-3.5-2.9-5.5c-3-1.2-5.2-1.8-7.3-4.7
			c1.2-0.4,2.6-0.2,3.8,0.9c2.5,1.7,3.7-2.1,1.2-3c2.5,1.3,4.5-2.2,1.5-2.9c-1.9-0.1-3-1.2-3.5-2.5c3.4-0.4,5.8,0.2,8.7,1.5
			c2.3-0.5,3.4-2.1,6-1.5c2,0,2-3.1,0-3.1c-1,0-2,0-3.1,0c-2.8-4.5-6.4,1.5-11.4,0c0.5-1.1,1.6-2,3.3-2c2.9-0.7,1.1-4.2-1.4-2.9
			c2.6-0.9,1.4-4.7-1.1-3c-1.4,1.3-3,1.3-4.3,0.7c2.1-2.6,4.2-4,7.2-5.1c1.3-1.9,0.9-3.9,3.2-5.3c1.4-1.4-0.8-3.6-2.2-2.2
			c-1.4,2.5-3.5,1.4-5.5,2.9c-1.2,3-1.8,5.2-4.7,7.3c-0.4-1.2-0.2-2.6,0.9-3.8c1.6-3.4-2.8-3.3-3.5-0.3c1.6-2.5-1.4-5.8-2.7-2.2
			c-0.1,1.6-0.9,2.7-2,3.3c-1.5-5,4.5-8.6,0-11.4c0-1,0-2,0-3.1c0-2-3.1-2-3.1,0c0.6,2.5-1,3.7-1.5,6c1.3,2.9,1.8,5.3,1.5,8.7
			c-1.3-0.4-2.4-1.6-2.5-3.5c-0.7-2.9-4.2-1.1-2.9,1.4c-0.9-2.6-4.7-1.4-3,1.1c1.1,1.2,1.3,2.6,0.9,3.8c-2.9-2.1-3.5-4.3-4.7-7.3
			c-2-1.5-4.1-0.4-5.5-2.9c-1.4-1.4-3.6,0.8-2.2,2.2c2.2,1.4,1.9,3.3,3.2,5.3c3,1.1,5.1,2.5,7.2,5.1c-1.3,0.6-2.9,0.6-4.3-0.7
			c-2.6-1.7-3.7,2.3-1,3.1c-2.4-1.2-4.2,2.3-1.3,2.9c1.6,0.1,2.7,0.9,3.3,2c-4.1,0.5-5.2-0.4-8.5-1.8c-2.4,0.4-3.2,2.6-6,1.8
			C1373.9,1033.9,1373.9,1037,1375.9,1037z M1390.8,1041.5c4.2-4.6,3.2-5,10.1-4.5C1397.2,1041.3,1396.2,1042.1,1390.8,1041.5z
			 M1399.1,1049.2c-1-5.8-0.3-6.1,4.2-10.2C1403.6,1045.1,1403.9,1045.8,1399.1,1049.2z M1410.4,1049.6c-4.4-3.6-4.4-4.5-4-10.3
			C1411.5,1043.6,1410.7,1043.6,1410.4,1049.6z M1418.7,1041.4c-5.6,0.4-6.3,0.1-10.2-4.4
			C1415.4,1036.5,1414.5,1036.7,1418.7,1041.4z M1418.7,1029.9c-3.6,4.4-4.5,4.4-10.3,4C1413,1028.6,1412.5,1029.6,1418.7,1029.9z
			 M1410.8,1020.8c-0.6,6,1.2,6.2-4.4,10.7C1405.6,1024.1,1406.9,1025.7,1410.8,1020.8z M1398.8,1021.6c4.6,4.2,5,3.2,4.5,10.1
			C1399,1028.1,1398.2,1027,1398.8,1021.6z M1390.7,1029.9c6-0.5,6-1,10.3,4C1394.8,1034.3,1394.5,1034.2,1390.7,1029.9z"/>
		<path class="st2" d="M1715.7,149.1c7.1-1.7,10.3,2.8,16.6,4.1c8-3.6,14.8-5.1,24.2-4.1c-1.2,3.7-4.5,6.7-9.7,7
			c-8.2,1.8-3,11.6,3.8,8.1c-7.2,2.4-3.9,13.1,3.1,8.5c3.4-3.1,7.2-3.6,10.5-2.5c-5.9,8.1-12,9.9-20.3,13.2
			c-4.1,5.5-1.2,11.4-8.1,15.4c-3.9,4,2.2,10.1,6.1,6.1c3.8-6.2,9.3-5.3,14.6-8.9c3.1-8.2,6.9-14.1,14.2-20.1
			c1.8,3.5,1.7,8-1.9,11.8c-4.5,5.9,5,10.7,7.8,4.1c-2.8,6.6,7.2,9.9,8.4,2.6c0.3-5.2,3.3-8.5,7-9.7c1,9.4-0.5,16.2-4.1,24.2
			c1.3,6.3,5.8,9.5,4.1,16.6c0,5.6,8.7,5.6,8.7,0c0-2.8,0-5.7,0-8.5c12.6-7.7-4.3-17.9-0.1-31.7c3.1,1.5,5.4,4.6,5.7,9.1
			c1.8,8.2,11.6,3,8.1-3.8c2.4,7.2,13.1,3.9,8.5-3.1c-3.6-3.8-3.7-8.3-1.9-11.8c7.4,5.9,11.1,11.8,14.3,20
			c5.4,3.5,10.8,2.6,14.7,8.8c4,3.9,10.1-2.2,6.1-6.1c-6.9-3.9-4-9.9-8.2-15.3c-8.3-3.3-14.5-5-20.4-13.1c3.3-1.1,7.1-0.7,10.5,2.5
			c6.8,4.6,10.4-5.9,3.2-8.4c6.8,3.7,12.5-6.1,4.1-8c-5.2-0.3-8.5-3.3-9.7-7c9.4-1,16.2,0.5,24.2,4.1c6.3-1.3,9.5-5.8,16.6-4.1
			c5.6,0,5.6-8.7,0-8.7c-2.8,0-5.7,0-8.5,0c-7.7-12.6-17.9,4.3-31.7,0.1c1.5-3.1,4.6-5.4,9.1-5.7c8.2-1.8,3-11.6-3.8-8.1
			c7.2-2.4,3.9-13.1-3.1-8.5c-3.8,3.6-8.3,3.7-11.8,1.9c5.9-7.4,11.8-11.1,20-14.3c3.5-5.4,2.6-10.8,8.8-14.7
			c3.9-4-2.2-10.1-6.1-6.1c-3.9,6.9-9.9,4-15.3,8.2c-3.3,8.3-5,14.5-13.1,20.4c-1.1-3.3-0.7-7.1,2.5-10.5c4.5-9.5-7.7-9.2-9.7-0.8
			c4.6-7.1-3.9-16.1-7.4-6.2c-0.2,4.6-2.6,7.6-5.7,9.1c-4.3-13.9,12.6-24-0.1-31.7c0-2.8,0-5.7,0-8.5c0-5.6-8.7-5.6-8.7,0
			c1.7,7.1-2.8,10.3-4.1,16.6c3.6,8,5.1,14.8,4.1,24.2c-3.7-1.2-6.7-4.5-7-9.7c-1.8-8.2-11.6-3-8.1,3.8c-2.4-7.2-13.1-3.9-8.5,3.1
			c3.1,3.4,3.6,7.2,2.5,10.5c-8.1-5.9-9.9-12-13.2-20.3c-5.5-4.1-11.4-1.2-15.4-8.1c-4-3.9-10.1,2.2-6.1,6.1
			c6.2,3.8,5.3,9.3,8.9,14.6c8.2,3.1,14.1,6.9,20.1,14.2c-3.5,1.8-8,1.7-11.8-1.9c-7.3-4.7-10.2,6.4-2.8,8.6
			c-6.8-3.4-11.7,6.5-3.6,8.2c4.6,0.2,7.6,2.6,9.1,5.7c-11.3,1.5-14.5-1.2-23.6-5.1c-6.8,1-8.9,7.2-16.6,5.1
			C1710.1,140.5,1710.1,149.1,1715.7,149.1z M1757.1,161.5c11.7-12.7,8.8-13.9,28.2-12.5C1775.1,160.9,1772.1,163.1,1757.1,161.5z
			 M1780.2,183c-2.7-16.2-0.8-17.1,11.7-28.4C1792.8,171.5,1793.5,173.5,1780.2,183z M1811.7,184c-12.2-10-12.2-12.5-11.2-28.8
			C1814.8,167.3,1812.6,167.4,1811.7,184z M1834.7,161.2c-15.7,1.2-17.5,0.2-28.3-12.3C1825.7,147.7,1823.2,148.2,1834.7,161.2z
			 M1834.9,129.1c-10,12.2-12.5,12.2-28.8,11.2C1818.9,125.6,1817.6,128.4,1834.9,129.1z M1812.7,104c-1.7,16.6,3.2,17.4-12.2,29.7
			C1798.4,113.3,1802.1,117.5,1812.7,104z M1779.3,106.2c12.7,11.7,13.9,8.8,12.5,28.2C1779.9,124.2,1777.7,121.2,1779.3,106.2z
			 M1756.8,129.1c16.8-1.3,16.7-2.8,28.8,11.2C1768.3,141.4,1767.6,141.3,1756.8,129.1z"/>
		<path class="st3" d="M1307.3,32.6c10.6-2.5,15.4,4.2,24.8,6.1c12-5.4,22.1-7.6,36.2-6.2c-1.9,5.5-6.7,10.1-14.5,10.5
			c-12.3,2.7-4.5,17.4,5.7,12.1c-10.8,3.6-5.9,19.6,4.6,12.6c5-4.7,10.8-5.4,15.7-3.7c-8.8,12.2-18,14.7-30.4,19.7
			c-6.1,8.2-1.8,17.1-12.1,23c-5.9,5.9,3.3,15.1,9.2,9.1c5.7-9.3,13.9-8,21.9-13.3c4.7-12.3,10.3-21.1,21.2-30
			c2.6,5.3,2.5,11.9-2.8,17.7c-6.7,8.9,7.5,16,11.6,6.1c-4.2,9.9,10.8,14.8,12.5,3.9c0.4-7.8,4.9-12.6,10.5-14.5
			c1.5,14.1-0.7,24.2-6.1,36.2c2,9.4,8.7,14.2,6.2,24.8c0,8.3,13,8.3,13,0c0-4.3,0-8.5,0-12.8c18.8-11.5-6.4-26.7-0.1-47.4
			c4.6,2.3,8.1,6.8,8.5,13.7c2.7,12.3,17.4,4.5,12.1-5.7c3.6,10.8,19.6,5.9,12.7-4.6c-5.3-5.7-5.5-12.4-2.9-17.7
			c11,8.9,16.6,17.6,21.3,29.9c8,5.3,16.2,3.9,21.9,13.2c5.9,5.9,15.1-3.3,9.1-9.2c-10.4-5.9-6-14.8-12.2-22.9
			c-12.4-4.9-21.7-7.4-30.5-19.6c4.9-1.7,10.6-1,15.7,3.7c10.2,6.9,15.5-8.9,4.8-12.5c10.2,5.5,18.8-9.1,6.1-12
			c-7.8-0.4-12.6-4.9-14.5-10.5c14.1-1.5,24.2,0.7,36.2,6.1c9.4-2,14.2-8.7,24.8-6.2c8.3,0,8.3-13,0-13c-4.3,0-8.5,0-12.8,0
			c-11.5-18.8-26.7,6.4-47.4,0.1c2.3-4.6,6.8-8.1,13.7-8.5c12.3-2.7,4.5-17.4-5.7-12.1c10.8-3.6,5.9-19.6-4.6-12.7
			c-5.7,5.3-12.4,5.5-17.7,2.9c8.9-11,17.6-16.6,29.9-21.3c5.3-8,3.9-16.2,13.2-21.9c5.9-5.9-3.3-15.1-9.2-9.1
			c-5.9,10.4-14.8,6-22.9,12.2c-4.9,12.4-7.4,21.7-19.6,30.5c-1.7-4.9-1-10.6,3.7-15.7c6.7-14.2-11.5-13.8-14.5-1.2
			c6.9-10.6-5.8-24.1-11.1-9.3c-0.4,6.8-3.9,11.4-8.4,13.7c-6.4-20.7,18.8-35.9-0.1-47.4c0-4.3,0-8.5,0-12.8c0-8.3-13-8.3-13,0
			c2.5,10.6-4.2,15.4-6.1,24.8c5.4,12,7.6,22.1,6.2,36.2c-5.5-1.9-10.1-6.7-10.5-14.5c-2.7-12.3-17.4-4.5-12.1,5.7
			c-3.6-10.8-19.6-5.9-12.6,4.6c4.7,5,5.4,10.8,3.7,15.7c-12.2-8.8-14.7-18-19.7-30.4c-8.2-6.1-17.1-1.8-23-12.1
			c-5.9-5.9-15.1,3.3-9.1,9.2c9.3,5.7,8,13.9,13.3,21.9c12.3,4.7,21.1,10.3,30,21.2c-5.3,2.6-11.9,2.5-17.7-2.8
			c-10.9-7-15.2,9.6-4.1,12.9c-10.1-5.1-17.4,9.7-5.4,12.2c6.8,0.4,11.4,3.9,13.7,8.4c-16.9,2.2-21.6-1.8-35.3-7.6
			c-10.1,1.5-13.4,10.8-24.8,7.7C1298.9,19.7,1299,32.6,1307.3,32.6z M1369.2,51.1c17.4-19,13.2-20.8,42.1-18.7
			C1396.2,50.3,1391.7,53.6,1369.2,51.1z M1403.8,83.3c-4.1-24.2-1.2-25.5,17.5-42.5C1422.6,66,1423.7,69,1403.8,83.3z M1450.9,84.8
			c-18.2-15-18.2-18.6-16.7-43C1455.6,59.8,1452.2,59.9,1450.9,84.8z M1485.4,50.7c-23.4,1.8-26.2,0.3-42.3-18.4
			C1471.8,30.5,1468.1,31.2,1485.4,50.7z M1485.6,2.7c-15,18.2-18.6,18.2-43,16.7C1461.6-2.6,1459.7,1.6,1485.6,2.7z M1452.4-34.9
			c-2.6,24.9,4.8,26-18.3,44.4C1431-21,1436.5-14.6,1452.4-34.9z M1402.5-31.5c19,17.4,20.8,13.2,18.7,42.1
			C1403.4-4.6,1400-9.1,1402.5-31.5z M1368.8,2.7c25.1-1.9,25-4.2,43,16.7C1386.1,21.1,1384.9,21,1368.8,2.7z"/>
		<path class="st3" d="M1768.8,1067.9c10.9-2.6,15.9,4.3,25.6,6.3c12.4-5.6,22.8-7.9,37.2-6.4c-1.9,5.7-6.9,10.4-14.9,10.8
			c-12.6,2.8-4.6,17.9,5.9,12.5c-11.1,3.7-6,20.2,4.8,13c5.2-4.8,11.1-5.5,16.1-3.8c-9,12.5-18.5,15.2-31.3,20.2
			c-6.3,8.4-1.8,17.6-12.5,23.6c-6.1,6.1,3.4,15.5,9.4,9.4c5.9-9.6,14.3-8.2,22.5-13.6c4.8-12.7,10.6-21.7,21.8-30.9
			c2.7,5.4,2.5,12.3-2.9,18.2c-6.9,9.1,7.7,16.4,12,6.3c-4.3,10.2,11.1,15.3,12.9,4c0.4-8,5.1-13,10.8-14.9
			c1.5,14.5-0.7,24.9-6.2,37.2c2,9.7,8.9,14.6,6.4,25.5c0,8.6,13.3,8.6,13.3,0c0-4.4,0-8.8,0-13.1c19.4-11.8-6.6-27.5-0.1-48.8
			c4.7,2.3,8.4,7,8.7,14c2.8,12.6,17.9,4.6,12.5-5.9c3.7,11.1,20.2,6,13-4.8c-5.5-5.9-5.7-12.8-3-18.2c11.3,9.1,17.1,18.1,21.9,30.8
			c8.3,5.4,16.7,4,22.5,13.6c6.1,6.1,15.5-3.4,9.4-9.4c-10.7-6-6.2-15.2-12.5-23.6c-12.8-5-22.3-7.7-31.3-20.1
			c5-1.7,10.9-1,16.2,3.8c10.5,7.1,16-9.1,5-12.9c10.5,5.7,19.3-9.3,6.3-12.4c-8-0.4-13-5.1-14.9-10.8c14.5-1.5,24.9,0.7,37.2,6.2
			c9.7-2,14.6-8.9,25.5-6.4c8.6,0,8.6-13.3,0-13.3c-4.4,0-8.8,0-13.1,0c-11.8-19.4-27.5,6.6-48.8,0.1c2.3-4.7,7-8.4,14-8.7
			c12.6-2.8,4.6-17.9-5.9-12.5c11.1-3.7,6-20.2-4.8-13c-5.9,5.5-12.8,5.7-18.2,3c9.1-11.3,18.1-17.1,30.8-21.9
			c5.4-8.3,4-16.7,13.6-22.5c6.1-6.1-3.4-15.5-9.4-9.4c-6,10.7-15.2,6.2-23.6,12.5c-5,12.8-7.7,22.3-20.1,31.3
			c-1.7-5-1-10.9,3.8-16.2c6.9-14.6-11.9-14.2-14.9-1.3c7.1-10.9-5.9-24.8-11.4-9.6c-0.4,7-4,11.7-8.7,14.1
			c-6.5-21.3,19.4-37-0.1-48.8c0-4.4,0-8.8,0-13.1c0-8.6-13.3-8.6-13.3,0c2.6,10.9-4.3,15.9-6.3,25.6c5.6,12.4,7.9,22.8,6.4,37.2
			c-5.7-1.9-10.4-6.9-10.8-14.9c-2.8-12.6-17.9-4.6-12.5,5.9c-3.7-11.1-20.2-6-13,4.8c4.8,5.2,5.5,11.1,3.8,16.1
			c-12.5-9-15.2-18.5-20.2-31.3c-8.4-6.3-17.6-1.8-23.6-12.5c-6.1-6.1-15.5,3.4-9.4,9.4c9.6,5.9,8.2,14.3,13.6,22.5
			c12.7,4.8,21.7,10.6,30.9,21.8c-5.4,2.7-12.3,2.5-18.2-2.9c-11.2-7.2-15.7,9.8-4.3,13.3c-10.4-5.2-17.9,10-5.5,12.6
			c7,0.4,11.7,4,14.1,8.7c-17.3,2.3-22.3-1.9-36.4-7.8c-10.4,1.5-13.7,11.2-25.5,7.9C1760.2,1054.6,1760.2,1067.9,1768.8,1067.9z
			 M1832.5,1086.9c17.9-19.6,13.6-21.4,43.4-19.2C1860.2,1086,1855.5,1089.4,1832.5,1086.9z M1868,1120c-4.2-24.9-1.2-26.3,18-43.7
			C1887.4,1102.3,1888.5,1105.3,1868,1120z M1916.5,1121.6c-18.7-15.4-18.7-19.2-17.2-44.2C1921.3,1095.9,1917.8,1096,1916.5,1121.6
			z M1952,1086.5c-24.1,1.9-26.9,0.3-43.5-18.9C1938,1065.7,1934.2,1066.4,1952,1086.5z M1952.2,1037.1
			c-15.4,18.7-19.2,18.7-44.2,17.2C1927.5,1031.6,1925.6,1036,1952.2,1037.1z M1918.1,998.4c-2.7,25.6,4.9,26.7-18.8,45.7
			C1896,1012.7,1901.7,1019.3,1918.1,998.4z M1866.7,1001.9c19.6,17.9,21.4,13.6,19.2,43.4
			C1867.6,1029.6,1864.2,1024.9,1866.7,1001.9z M1832,1037.1c25.8-2,25.7-4.3,44.2,17.2C1849.8,1056,1848.6,1055.9,1832,1037.1z"/>
		<path class="st2" d="M1630.5,367.3c4.8-1.1,6.9,1.9,11.2,2.7c5.4-2.4,10-3.4,16.3-2.8c-0.8,2.5-3,4.5-6.5,4.7
			c-5.5,1.2-2,7.8,2.6,5.5c-4.9,1.6-2.6,8.8,2.1,5.7c2.3-2.1,4.8-2.4,7-1.7c-3.9,5.5-8.1,6.6-13.7,8.8c-2.8,3.7-0.8,7.7-5.4,10.3
			c-2.6,2.7,1.5,6.8,4.1,4.1c2.6-4.2,6.2-3.6,9.8-6c2.1-5.5,4.6-9.5,9.5-13.5c1.2,2.4,1.1,5.4-1.3,8c-3,4,3.4,7.2,5.2,2.7
			c-1.9,4.5,4.9,6.7,5.6,1.7c0.2-3.5,2.2-5.7,4.7-6.5c0.7,6.3-0.3,10.9-2.7,16.3c0.9,4.2,3.9,6.4,2.8,11.2c0,3.7,5.8,3.7,5.8,0
			c0-1.9,0-3.8,0-5.7c8.5-5.2-2.9-12,0-21.3c2.1,1,3.7,3.1,3.8,6.1c1.2,5.5,7.8,2,5.5-2.6c1.6,4.9,8.8,2.6,5.7-2.1
			c-2.4-2.6-2.5-5.6-1.3-8c4.9,4,7.5,7.9,9.6,13.4c3.6,2.4,7.3,1.8,9.9,5.9c2.7,2.6,6.8-1.5,4.1-4.1c-4.7-2.6-2.7-6.6-5.5-10.3
			c-5.6-2.2-9.7-3.3-13.7-8.8c2.2-0.8,4.8-0.4,7.1,1.7c4.6,3.1,7-4,2.2-5.6c4.6,2.5,8.4-4.1,2.8-5.4c-3.5-0.2-5.7-2.2-6.5-4.7
			c6.3-0.7,10.9,0.3,16.3,2.7c4.2-0.9,6.4-3.9,11.2-2.8c3.7,0,3.7-5.8,0-5.8c-1.9,0-3.8,0-5.7,0c-5.2-8.5-12,2.9-21.3,0
			c1-2.1,3.1-3.6,6.1-3.8c5.5-1.2,2-7.8-2.6-5.5c4.9-1.6,2.6-8.8-2.1-5.7c-2.6,2.4-5.6,2.5-8,1.3c4-4.9,7.9-7.5,13.4-9.6
			c2.4-3.6,1.8-7.3,5.9-9.9c2.6-2.7-1.5-6.8-4.1-4.1c-2.6,4.7-6.6,2.7-10.3,5.5c-2.2,5.6-3.3,9.7-8.8,13.7c-0.8-2.2-0.4-4.8,1.7-7.1
			c3-6.4-5.2-6.2-6.5-0.6c3.1-4.8-2.6-10.8-5-4.2c-0.2,3.1-1.7,5.1-3.8,6.1c-2.9-9.3,8.5-16.1,0-21.3c0-1.9,0-3.8,0-5.7
			c0-3.7-5.8-3.7-5.8,0c1.1,4.8-1.9,6.9-2.7,11.2c2.4,5.4,3.4,10,2.8,16.3c-2.5-0.8-4.5-3-4.7-6.5c-1.2-5.5-7.8-2-5.5,2.6
			c-1.6-4.9-8.8-2.6-5.7,2.1c2.1,2.3,2.4,4.8,1.7,7c-5.5-3.9-6.6-8.1-8.8-13.7c-3.7-2.8-7.7-0.8-10.3-5.4c-2.7-2.6-6.8,1.5-4.1,4.1
			c4.2,2.6,3.6,6.2,6,9.8c5.5,2.1,9.5,4.6,13.5,9.5c-2.4,1.2-5.4,1.1-8-1.3c-4.9-3.1-6.8,4.3-1.9,5.8c-4.6-2.3-7.8,4.4-2.4,5.5
			c3.1,0.2,5.1,1.7,6.1,3.8c-7.6,1-9.7-0.8-15.9-3.4c-4.6,0.7-6,4.9-11.2,3.5C1626.8,361.5,1626.8,367.3,1630.5,367.3z
			 M1658.4,375.6c7.8-8.6,5.9-9.3,18.9-8.4C1670.5,375.2,1668.5,376.7,1658.4,375.6z M1673.9,390.1c-1.8-10.9-0.5-11.5,7.9-19.1
			C1682.4,382.3,1682.8,383.7,1673.9,390.1z M1695.1,390.8c-8.2-6.7-8.2-8.4-7.5-19.3C1697.2,379.5,1695.7,379.6,1695.1,390.8z
			 M1710.6,375.4c-10.5,0.8-11.8,0.2-19-8.3C1704.5,366.3,1702.8,366.7,1710.6,375.4z M1710.7,353.9c-6.7,8.2-8.4,8.2-19.3,7.5
			C1699.9,351.5,1699.1,353.4,1710.7,353.9z M1695.8,337c-1.2,11.2,2.2,11.7-8.2,20C1686.1,343.2,1688.6,346.1,1695.8,337z
			 M1673.3,338.5c8.6,7.8,9.3,5.9,8.4,18.9C1673.7,350.6,1672.2,348.5,1673.3,338.5z M1658.2,353.9c11.3-0.9,11.2-1.9,19.3,7.5
			C1665.9,362.1,1665.4,362.1,1658.2,353.9z"/>
		<path class="st2" d="M1757,855.4c3.5-0.8,5.2,1.4,8.3,2c4-1.8,7.4-2.5,12.1-2.1c-0.6,1.8-2.2,3.4-4.8,3.5
			c-4.1,0.9-1.5,5.8,1.9,4.1c-3.6,1.2-2,6.5,1.5,4.2c1.7-1.6,3.6-1.8,5.2-1.2c-2.9,4.1-6,4.9-10.1,6.6c-2.1,2.7-0.6,5.7-4,7.7
			c-2,2,1.1,5,3.1,3.1c1.9-3.1,4.6-2.7,7.3-4.4c1.6-4.1,3.4-7,7.1-10c0.9,1.8,0.8,4-0.9,5.9c-2.2,3,2.5,5.3,3.9,2
			c-1.4,3.3,3.6,5,4.2,1.3c0.1-2.6,1.6-4.2,3.5-4.8c0.5,4.7-0.2,8.1-2,12.1c0.7,3.1,2.9,4.7,2.1,8.3c0,2.8,4.3,2.8,4.3,0
			c0-1.4,0-2.8,0-4.3c6.3-3.8-2.1-8.9,0-15.8c1.5,0.8,2.7,2.3,2.8,4.6c0.9,4.1,5.8,1.5,4.1-1.9c1.2,3.6,6.5,2,4.2-1.5
			c-1.8-1.9-1.8-4.1-1-5.9c3.7,3,5.5,5.9,7.1,10c2.7,1.8,5.4,1.3,7.3,4.4c2,2,5-1.1,3.1-3.1c-3.5-2-2-4.9-4.1-7.7
			c-4.1-1.6-7.2-2.5-10.2-6.5c1.6-0.6,3.5-0.3,5.2,1.2c3.4,2.3,5.2-3,1.6-4.2c3.4,1.8,6.3-3,2-4c-2.6-0.1-4.2-1.6-4.8-3.5
			c4.7-0.5,8.1,0.2,12.1,2c3.1-0.7,4.7-2.9,8.3-2.1c2.8,0,2.8-4.3,0-4.3c-1.4,0-2.8,0-4.3,0c-3.8-6.3-8.9,2.1-15.8,0
			c0.8-1.5,2.3-2.7,4.6-2.8c4.1-0.9,1.5-5.8-1.9-4.1c3.6-1.2,2-6.5-1.5-4.2c-1.9,1.8-4.1,1.8-5.9,1c3-3.7,5.9-5.5,10-7.1
			c1.8-2.7,1.3-5.4,4.4-7.3c2-2-1.1-5-3.1-3.1c-2,3.5-4.9,2-7.7,4.1c-1.6,4.1-2.5,7.2-6.5,10.2c-0.6-1.6-0.3-3.5,1.2-5.2
			c2.2-4.7-3.8-4.6-4.8-0.4c2.3-3.5-1.9-8-3.7-3.1c-0.1,2.3-1.3,3.8-2.8,4.6c-2.1-6.9,6.3-12,0-15.8c0-1.4,0-2.8,0-4.3
			c0-2.8-4.3-2.8-4.3,0c0.8,3.5-1.4,5.2-2,8.3c1.8,4,2.5,7.4,2.1,12.1c-1.8-0.6-3.4-2.2-3.5-4.8c-0.9-4.1-5.8-1.5-4.1,1.9
			c-1.2-3.6-6.5-2-4.2,1.5c1.6,1.7,1.8,3.6,1.2,5.2c-4.1-2.9-4.9-6-6.6-10.1c-2.7-2-5.7-0.6-7.7-4c-2-2-5,1.1-3.1,3.1
			c3.1,1.9,2.7,4.6,4.4,7.3c4.1,1.6,7,3.4,10,7.1c-1.8,0.9-4,0.8-5.9-0.9c-3.6-2.3-5.1,3.2-1.4,4.3c-3.4-1.7-5.8,3.2-1.8,4.1
			c2.3,0.1,3.8,1.3,4.6,2.8c-5.6,0.7-7.2-0.6-11.8-2.5c-3.4,0.5-4.5,3.6-8.3,2.6C1754.2,851.1,1754.2,855.4,1757,855.4z
			 M1777.6,861.6c5.8-6.4,4.4-6.9,14.1-6.2C1786.6,861.3,1785.1,862.4,1777.6,861.6z M1789.2,872.4c-1.4-8.1-0.4-8.5,5.8-14.2
			C1795.4,866.6,1795.8,867.6,1789.2,872.4z M1804.9,872.9c-6.1-5-6.1-6.2-5.6-14.3C1806.4,864.5,1805.3,864.5,1804.9,872.9z
			 M1816.4,861.5c-7.8,0.6-8.7,0.1-14.1-6.1C1811.8,854.7,1810.6,855,1816.4,861.5z M1816.5,845.5c-5,6.1-6.2,6.1-14.3,5.6
			C1808.5,843.7,1807.8,845.1,1816.5,845.5z M1805.4,832.9c-0.9,8.3,1.6,8.7-6.1,14.8C1798.2,837.5,1800.1,839.7,1805.4,832.9z
			 M1788.7,834c6.4,5.8,6.9,4.4,6.2,14.1C1789,843,1787.9,841.5,1788.7,834z M1777.5,845.5c8.4-0.6,8.3-1.4,14.3,5.6
			C1783.2,851.6,1782.9,851.5,1777.5,845.5z"/>
	</g>
	<path style="clip-path:url(#SVGID_00000111171181390605347110000009052454324259576499_);fill:#960202;" d="M508.1,477.5
		c-199.6,3.4-199.6,300.3,0,303.7C707.7,777.8,707.6,480.9,508.1,477.5z"/>
	<path style="clip-path:url(#SVGID_00000111171181390605347110000009052454324259576499_);fill:#960202;" d="M254,224.6
		c-192.1,3.3-192,289,0,292.2C446,513.5,446,227.8,254,224.6z"/>
	<g style="clip-path:url(#SVGID_00000111171181390605347110000009052454324259576499_);">
		<path class="st5" d="M518.9,463.6c5.7-60.2,4.1-120.7,1.1-181c0.9-100.4,8.8-202.4-1.7-302.1c-10.2,99.9-2.6,201.6-1.6,302.1
			C514.7,341.8,510.3,407.2,518.9,463.6L518.9,463.6z"/>
		<rect x="466.3" y="437.7" class="st5" width="104.4" height="59.5"/>
		<path class="st6" d="M518.5,467.4c-199.6,3.4-199.6,300.3,0,303.7C718.1,767.7,718.1,470.8,518.5,467.4z"/>
		<path class="st7" d="M404.1,519.4c-31.6,122.7,80.3,243.2,204.8,222C465.9,849,285.6,652.9,404.1,519.4z"/>
		<g>
			<path class="st8" d="M402.6,521.1c78.2,64.3,142.5,103,265.6,123.7c1.6-9.8,2.5-20.1,2.1-30.2c-108.7-17.3-180-59.4-245.7-114.5
				C416.5,506.3,409.1,513.4,402.6,521.1z"/>
			<path class="st9" d="M368.1,598.4L368.1,598.4c77.7,62.7,141.8,101.1,264.7,120.8c7.6-8.6,14.2-18.1,19.5-28.2
				C530.8,678,445.3,627,376.5,565.5C376.4,565.5,368.2,598.3,368.1,598.4z"/>
			<path class="st8" d="M372.1,659.7c16.4,68.2,71.8,84.9,138.3,111.2c23.9,1.3,48.1-3.3,68.9-12.5
				C487.7,738.2,431.4,705.6,372.1,659.7z"/>
			<path class="st9" d="M480.1,472.4c51,35.1,98.1,61.4,175.6,81.8c-18-53.2-95.6-59.1-127.5-86.4
				C512,466.6,495.2,468.3,480.1,472.4z"/>
		</g>
	</g>
	<g style="clip-path:url(#SVGID_00000111171181390605347110000009052454324259576499_);">
		<path class="st5" d="M259.2,213.6c5.4-56.8,3.8-113.8,1-170.7c0.9-94.6,8.3-190.9-1.6-284.9c-9.6,94.2-2.4,190.1-1.5,284.9
			C255.3,98.8,251.2,160.5,259.2,213.6L259.2,213.6z"/>
		<rect x="209.6" y="189.2" class="st5" width="98.4" height="56.1"/>
		<path class="st6" d="M258.8,217.3c-188.2,3.2-188.2,283.2,0,286.4C447.1,500.5,447.1,220.5,258.8,217.3z"/>
		<path class="st7" d="M151,266.3C121.2,382,226.7,495.6,344.1,475.6C209.3,577.1,39.2,392.2,151,266.3z"/>
		<g>
			<path class="st8" d="M149.6,267.9C223.3,328.6,284,365.1,400,384.6c1.6-9.2,2.3-18.9,1.9-28.5c-102.5-16.3-169.7-56-231.8-108
				C162.7,253.9,155.7,260.6,149.6,267.9z"/>
			<path class="st9" d="M117,340.8L117,340.8c73.2,59.2,133.7,95.3,249.6,113.9c7.2-8.1,13.4-17,18.4-26.6
				C270.4,415.9,189.8,367.7,125,309.7C124.9,309.8,117.1,340.7,117,340.8z"/>
			<path class="st8" d="M120.8,398.6c15.5,64.3,67.7,80.1,130.4,104.9c22.5,1.2,45.4-3.1,64.9-11.8
				C229.8,472.7,176.7,441.9,120.8,398.6z"/>
			<path class="st9" d="M222.6,221.9c48.1,33.1,92.5,57.9,165.6,77.2c-17-50.2-90.2-55.7-120.2-81.5
				C252.8,216.5,236.9,218.1,222.6,221.9z"/>
		</g>
	</g>
</g>
</svg>
